<svg width="40" height="40" viewBox="0 0 40 40" fill="none" xmlns="http://www.w3.org/2000/svg">
<path d="M7.41667 0.666748H26.0833C27.556 0.666748 28.75 1.86076 28.75 3.33341V6.00008H4.75V3.33341C4.75 1.86076 5.94401 0.666748 7.41667 0.666748Z" fill="#A8DBA8"/>
<path d="M21.4167 29.3333C14.7894 29.3333 9.41667 23.9606 9.41667 17.3333V6H4.75V34H28.75V29.3333H21.4167Z" fill="#CFF09E"/>
<path d="M4.75 34H28.75V36.6667C28.75 38.1393 27.556 39.3333 26.0833 39.3333H7.41667C5.94401 39.3333 4.75 38.1393 4.75 36.6667V34Z" fill="#A8DBA8"/>
<path d="M31.5938 11.6399L33.903 12.9732L26.2363 26.2525L23.9271 24.9192L31.5938 11.6399Z" fill="#CFF09E"/>
<path d="M34.751 8.84504C35.3887 9.21353 35.6071 10.029 35.2389 10.6667L33.9056 12.9759L31.596 11.6426L32.9294 9.33332C33.2979 8.69562 34.1133 8.47687 34.751 8.84504V8.84504Z" fill="#A8DBA8"/>
<path d="M23.0833 29.0534L23.93 24.9199L26.2367 26.2533L23.0833 29.0534Z" fill="#A8DBA8"/>
<path d="M31.596 11.6426L33.9056 12.9759L32.5723 15.2852L30.2627 13.9518L31.596 11.6426Z" fill="#79BD9A"/>
<path d="M10.0833 10H23.4167V12.6667H10.0833V10Z" fill="#79BD9A"/>
<path d="M10.75 2.66675H7.41667C7.0485 2.66675 6.75 2.96525 6.75 3.33341C6.75 3.70158 7.0485 4.00008 7.41667 4.00008H10.75C11.1182 4.00008 11.4167 3.70158 11.4167 3.33341C11.4167 2.96525 11.1182 2.66675 10.75 2.66675Z" fill="#3B8686"/>
<path d="M26.0833 3.33341C26.0833 3.70158 25.7848 4.00008 25.4167 4.00008C25.0485 4.00008 24.75 3.70158 24.75 3.33341C24.75 2.96525 25.0485 2.66675 25.4167 2.66675C25.7848 2.66675 26.0833 2.96525 26.0833 3.33341Z" fill="#3B8686"/>
<path d="M23.4167 3.33341C23.4167 3.70158 23.1182 4.00008 22.75 4.00008C22.3818 4.00008 22.0833 3.70158 22.0833 3.33341C22.0833 2.96525 22.3818 2.66675 22.75 2.66675C23.1182 2.66675 23.4167 2.96525 23.4167 3.33341Z" fill="#3B8686"/>
<path d="M20.75 3.33341C20.75 3.70158 20.4515 4.00008 20.0834 4.00008C19.7152 4.00008 19.4167 3.70158 19.4167 3.33341C19.4167 2.96525 19.7152 2.66675 20.0834 2.66675C20.4515 2.66675 20.75 2.96525 20.75 3.33341Z" fill="#3B8686"/>
<path d="M14.0834 37.3333H19.4167C19.7848 37.3333 20.0833 37.0348 20.0833 36.6667C20.0833 36.2985 19.7848 36 19.4167 36H14.0834C13.7152 36 13.4167 36.2985 13.4167 36.6667C13.4167 37.0348 13.7152 37.3333 14.0834 37.3333Z" fill="#3B8686"/>
<path d="M36.0166 9.48014C35.8789 8.96777 35.543 8.53125 35.0833 8.2666C34.6234 8.00065 34.0765 7.92871 33.5635 8.06673C33.0511 8.20443 32.6146 8.54036 32.3499 9L31.0166 11.3333L29.6833 13.6468L29.4167 14.1068V3.33333C29.4167 1.49251 27.9242 0 26.0833 0H7.41668C5.57586 0 4.08334 1.49251 4.08334 3.33333V36.6667C4.08334 38.5075 5.57586 40 7.41668 40H26.0833C27.9242 40 29.4167 38.5075 29.4167 36.6667V22.0801L34.4834 13.3333L35.8167 11.0267C36.0899 10.5596 36.1621 10.0013 36.0166 9.48014V9.48014ZM32.9968 13.2201L32.3301 14.3734L31.1699 13.7067L31.8366 12.5534L32.9968 13.2201ZM25.9968 25.3333L24.8366 24.6667L30.5033 14.8467L31.6634 15.5133L25.9968 25.3333ZM25.1032 26.36L24.1367 27.2132L24.3968 25.9466L25.1032 26.36ZM5.41668 3.33333C5.41668 2.22884 6.31218 1.33333 7.41668 1.33333H26.0833C27.1878 1.33333 28.0833 2.22884 28.0833 3.33333V5.33333H5.41668V3.33333ZM28.0833 36.6667C28.0833 37.7712 27.1878 38.6667 26.0833 38.6667H7.41668C6.31218 38.6667 5.41668 37.7712 5.41668 36.6667V34.6667H28.0833V36.6667ZM28.0833 33.3333H5.41668V6.66667H28.0833V16.3932L23.3499 24.5866C23.3285 24.6312 23.3128 24.6781 23.3034 24.7266V24.7868L22.5433 28.5133L21.4167 29.3333V28.6667C21.4167 28.4141 21.2741 28.1833 21.0482 28.0703C20.8223 27.9574 20.5521 27.9818 20.3499 28.1335L18.8099 29.2868C18.5495 29.4808 18.2087 29.5306 17.9033 29.4199C18.03 29.2868 18.1501 29.1468 18.2699 29L18.3499 28.9001C18.7012 28.4626 18.8356 27.8896 18.7152 27.3415C18.5947 26.7936 18.2324 26.3298 17.7302 26.0801L17.61 26C16.7962 25.5999 15.8125 25.8454 15.2816 26.5804C14.7507 27.3158 14.8275 28.3268 15.4632 28.9733L15.8366 29.3398C15.1009 29.7663 14.2669 29.9938 13.4167 30C13.0485 30 12.75 30.2985 12.75 30.6667C12.75 31.0348 13.0485 31.3333 13.4167 31.3333C14.6247 31.3346 15.8067 30.9824 16.8167 30.32C17.6335 30.96 18.778 30.9736 19.61 30.3532L20.0833 30V30.6667C20.084 30.9176 20.2259 31.1471 20.4499 31.2601C20.6758 31.3747 20.947 31.3512 21.1501 31.1999L23.1501 29.7067C23.292 29.6982 23.4274 29.6445 23.5368 29.5534L26.6966 26.7533C26.7191 26.7275 26.7373 26.6982 26.75 26.6667C26.7738 26.6406 26.794 26.6113 26.8099 26.5801L28.0833 24.3932V33.3333ZM17.3099 28.0667L17.2302 28.1667C17.126 28.2972 17.0147 28.4219 16.8968 28.54L16.4102 28.0466C16.2686 27.9082 16.2191 27.7005 16.2832 27.5133C16.3298 27.3691 16.4369 27.2523 16.5768 27.1934C16.6423 27.1667 16.7126 27.153 16.7832 27.1533C16.862 27.1533 16.9395 27.1716 17.0101 27.2067L17.1367 27.2734C17.2783 27.3415 17.3796 27.4723 17.4102 27.6266C17.4443 27.7809 17.4076 27.9424 17.3099 28.0667ZM34.6432 10.3333L33.6432 12.0667L32.4834 11.4001L33.4834 9.66667C33.5716 9.51204 33.7181 9.39941 33.89 9.35319C34.0612 9.31087 34.2422 9.33464 34.3968 9.41992C34.5511 9.50814 34.6641 9.65462 34.71 9.82682C34.7621 9.99512 34.7451 10.1774 34.6634 10.3333H34.6432Z" fill="#3B8686"/>
<path d="M10.0834 13.3333H23.4167C23.7848 13.3333 24.0834 13.0348 24.0834 12.6666V9.99992C24.0834 9.63175 23.7848 9.33325 23.4167 9.33325H10.0834C9.71519 9.33325 9.41669 9.63175 9.41669 9.99992V12.6666C9.41669 13.0348 9.71519 13.3333 10.0834 13.3333ZM10.75 10.6666H22.75V11.9999H10.75V10.6666Z" fill="#3B8686"/>
<path d="M20.0833 15.3334C20.0833 14.9653 19.7848 14.6667 19.4167 14.6667H12.75C12.3818 14.6667 12.0833 14.9653 12.0833 15.3334C12.0833 15.7016 12.3818 16.0001 12.75 16.0001H19.4167C19.7848 16.0001 20.0833 15.7016 20.0833 15.3334Z" fill="#3B8686"/>
<path d="M23.4167 17.3333H16.75C16.3818 17.3333 16.0833 17.6318 16.0833 17.9999C16.0833 18.3681 16.3818 18.6666 16.75 18.6666H23.4167C23.7848 18.6666 24.0833 18.3681 24.0833 17.9999C24.0833 17.6318 23.7848 17.3333 23.4167 17.3333Z" fill="#3B8686"/>
<path d="M10.75 17.3333C10.3818 17.3333 10.0833 17.6318 10.0833 17.9999C10.0833 18.3681 10.3818 18.6666 10.75 18.6666H14.0833C14.4515 18.6666 14.75 18.3681 14.75 17.9999C14.75 17.6318 14.4515 17.3333 14.0833 17.3333H10.75Z" fill="#3B8686"/>
<path d="M8.08335 22.0001H22.0834C22.4515 22.0001 22.75 21.7016 22.75 21.3334C22.75 20.9653 22.4515 20.6667 22.0834 20.6667H8.08335C7.71519 20.6667 7.41669 20.9653 7.41669 21.3334C7.41669 21.7016 7.71519 22.0001 8.08335 22.0001Z" fill="#3B8686"/>
<path d="M14.0834 24.6667C14.0834 24.2985 13.7849 24 13.4167 24H8.08335C7.71519 24 7.41669 24.2985 7.41669 24.6667C7.41669 25.0348 7.71519 25.3333 8.08335 25.3333H13.4167C13.7849 25.3333 14.0834 25.0348 14.0834 24.6667Z" fill="#3B8686"/>
</svg>
