<svg width="40" height="40" viewBox="0 0 40 40" fill="none" xmlns="http://www.w3.org/2000/svg">
<path d="M8.51094 4.29686C8.64641 4.51116 8.75258 4.74265 8.82656 4.98515C9.29602 6.51061 8.44 8.1278 6.91461 8.59733C5.38922 9.06686 3.77195 8.21077 3.30242 6.68538C2.83289 5.15999 3.68898 3.54272 5.21437 3.07319C6.46351 2.68874 7.81523 3.19046 8.51094 4.29686Z" fill="#A5E2FB"/>
<path d="M29.5672 28.1154C30.4383 29.7158 29.847 31.7192 28.2467 32.5903C26.6464 33.4614 24.643 32.8701 23.7719 31.2698C22.9008 29.6695 23.492 27.6661 25.0923 26.795C25.5761 26.5317 26.118 26.3937 26.6688 26.3936C27.8784 26.3895 28.9922 27.0512 29.5672 28.1154V28.1154Z" fill="#4689D3"/>
<path d="M6.06712 8.71523C7.6605 8.71523 8.9522 7.42353 8.9522 5.83015C8.9522 4.23676 7.6605 2.94507 6.06712 2.94507C4.47373 2.94507 3.18204 4.23676 3.18204 5.83015C3.18204 7.42353 4.47373 8.71523 6.06712 8.71523Z" fill="#A5E2FB"/>
<path d="M3.92859 37.8674C5.40794 37.8674 6.60719 36.6682 6.60719 35.1888C6.60719 33.7095 5.40794 32.5103 3.92859 32.5103C2.44925 32.5103 1.25 33.7095 1.25 35.1888C1.25 36.6682 2.44925 37.8674 3.92859 37.8674Z" fill="#53D8D8"/>
<path d="M21.8989 7.20476C23.2995 7.20476 24.435 6.06931 24.435 4.66866C24.435 3.26802 23.2995 2.13257 21.8989 2.13257C20.4983 2.13257 19.3628 3.26802 19.3628 4.66866C19.3628 6.06931 20.4983 7.20476 21.8989 7.20476Z" fill="#F3CE7D"/>
<path d="M12.4452 21.5021C13.4201 21.5021 14.2105 20.7117 14.2105 19.7367C14.2105 18.7618 13.4201 17.9714 12.4452 17.9714C11.4702 17.9714 10.6798 18.7618 10.6798 19.7367C10.6798 20.7117 11.4702 21.5021 12.4452 21.5021Z" fill="#5FCDA4"/>
<path d="M23.3759 18.4543C24.4139 18.4543 25.2553 17.6129 25.2553 16.5749C25.2553 15.537 24.4139 14.6956 23.3759 14.6956C22.338 14.6956 21.4966 15.537 21.4966 16.5749C21.4966 17.6129 22.338 18.4543 23.3759 18.4543Z" fill="#6994FE"/>
<path d="M36.6423 18.6642C37.8064 18.6642 38.75 17.7205 38.75 16.5565C38.75 15.3924 37.8064 14.4487 36.6423 14.4487C35.4782 14.4487 34.5345 15.3924 34.5345 16.5565C34.5345 17.7205 35.4782 18.6642 36.6423 18.6642Z" fill="#8F8FB7"/>
<path d="M5.21336 5.82999C5.21344 4.62835 5.95813 3.55249 7.08274 3.12929C5.59118 2.56874 3.92766 3.32351 3.36711 4.81499C2.80657 6.30648 3.56133 7.97007 5.05282 8.53062C5.70711 8.77648 6.42836 8.77648 7.08266 8.53062C5.95813 8.10742 5.21344 7.03164 5.21336 5.82999Z" fill="#85BBCC"/>
<path d="M3.28125 35.1888C3.28125 34.1017 3.93829 33.1223 4.94422 32.7101C3.57524 32.1494 2.01094 32.8046 1.45024 34.1736C0.889535 35.5426 1.54477 37.1069 2.91375 37.6676C3.5643 37.9341 4.2936 37.9341 4.94422 37.6676C3.93829 37.2553 3.28125 36.2759 3.28125 35.1888Z" fill="#44AAA7"/>
<path d="M6.21681 16.2296C6.22899 16.2307 6.2411 16.2311 6.25321 16.2311C6.49798 16.2308 6.70134 16.0422 6.72009 15.7982L6.75915 15.2869C6.77899 15.0288 6.58579 14.8035 6.32767 14.7836C6.06954 14.7638 5.84423 14.957 5.82438 15.2151L5.78532 15.7264C5.76548 15.9845 5.95868 16.2098 6.21681 16.2296V16.2296Z" fill="#284268"/>
<path d="M5.42781 24.313C5.44383 24.3147 5.45984 24.3155 5.47594 24.3155C5.71625 24.3151 5.91734 24.1333 5.94172 23.8942L6.57554 17.6774C6.60179 17.4198 6.41421 17.1898 6.15664 17.1636C5.89906 17.1373 5.66898 17.3249 5.64281 17.5824L5.00898 23.7991C4.98273 24.0567 5.17023 24.2868 5.42781 24.313C5.42773 24.313 5.42781 24.313 5.42781 24.313V24.313Z" fill="#284268"/>
<path d="M36.6423 13.98C36.4169 13.98 36.1924 14.0097 35.9747 14.0682L24.8947 4.44723C24.7728 2.79262 23.3327 1.5502 21.6781 1.67207C20.4273 1.76426 19.3652 2.62387 19.0146 3.82816H8.75626C7.65126 2.34238 5.55102 2.03371 4.06524 3.13871C2.57946 4.24371 2.27079 6.34395 3.37579 7.82965C3.65141 8.2002 4.00055 8.50988 4.40149 8.73918L2.34829 32.4688C0.845552 33.3415 0.334771 35.2672 1.20751 36.77C2.08024 38.2727 4.00594 38.7835 5.50868 37.9107C6.10305 37.5655 6.56813 37.0352 6.83266 36.4007L23.7659 32.0924C25.0899 33.6964 27.4637 33.9235 29.0677 32.5994C30.3706 31.5241 30.7979 29.7128 30.1132 28.1686L36.8856 19.1212C38.3022 18.987 39.3417 17.7299 39.2075 16.3134C39.0822 14.9904 37.9711 13.9798 36.6421 13.98H36.6423ZM24.7638 5.57512L35.0659 14.5204C34.5653 14.908 34.2249 15.4662 34.1094 16.0886L25.677 16.1055C25.484 15.1694 24.7442 14.4429 23.8047 14.2668L23.125 7.41105C23.9072 7.05949 24.503 6.39199 24.7638 5.57512V5.57512ZM24.7866 16.5751C24.7863 17.3542 24.1546 17.9856 23.3756 17.9854C22.5965 17.9851 21.9651 17.3534 21.9653 16.5743C21.9656 15.7954 22.597 15.1641 23.3759 15.1641C24.1548 15.165 24.7859 15.7963 24.7866 16.5751ZM21.8989 2.6016C23.0407 2.60152 23.9663 3.52715 23.9664 4.66895C23.9665 5.81074 23.0409 6.73637 21.8991 6.73645C20.7573 6.73652 19.8316 5.8109 19.8316 4.6691V4.66902C19.8328 3.52777 20.7577 2.60293 21.8989 2.6016ZM18.8965 4.76566C18.9501 6.42449 20.3382 7.72574 21.997 7.67215C22.0674 7.66988 22.1376 7.66512 22.2076 7.65793L22.8638 14.2838C22.5656 14.3505 22.2834 14.475 22.0331 14.6503L9.30813 4.76566H18.8965ZM9.41407 6.03504L21.3844 15.3332C21.0567 15.8564 20.9492 16.488 21.0854 17.0901L14.3734 18.6106C13.8506 17.7139 12.7788 17.2959 11.7869 17.6016L7.84258 8.67348C8.76173 8.09934 9.34704 7.11668 9.41407 6.03504V6.03504ZM13.7422 19.7368C13.7422 20.453 13.1616 21.0336 12.4453 21.0336C11.7291 21.0336 11.1484 20.453 11.1484 19.7368C11.1484 19.0205 11.7291 18.4399 12.4453 18.4399C13.1613 18.4406 13.7415 19.0208 13.7422 19.7368ZM3.65079 5.83012C3.65071 4.49559 4.73251 3.41379 6.06704 3.41371C7.40157 3.41363 8.48337 4.49543 8.48344 5.82996C8.48352 7.16449 7.40173 8.24629 6.06719 8.24637H6.06712C4.73329 8.24488 3.65235 7.16395 3.65079 5.83012ZM5.31149 9.09699C5.86422 9.22574 6.44063 9.21121 6.98618 9.05481L10.9663 18.0643C10.0423 18.879 9.95391 20.2885 10.7687 21.2123C10.8493 21.3037 10.9373 21.3884 11.0317 21.4654L5.07313 32.2579C4.5161 32.0393 3.90813 31.9849 3.3211 32.1009L5.31149 9.09699ZM3.9286 37.3985C2.70813 37.3986 1.71876 36.4092 1.71868 35.1887C1.7186 33.9682 2.70797 32.9789 3.92844 32.9788C5.14891 32.9787 6.13829 33.9681 6.13837 35.1886V35.1886C6.13696 36.4085 5.14844 37.3971 3.9286 37.3985V37.3985ZM23.2167 31.2L7.07032 35.3703C7.07368 35.3101 7.07587 35.2497 7.07587 35.1888C7.07571 34.2293 6.63719 33.3225 5.88532 32.7266L11.8658 21.8945C12.5876 22.0889 13.3588 21.9083 13.9193 21.4136L23.7052 27.3701C22.8484 28.459 22.6606 29.9313 23.2167 31.2004V31.2ZM14.48 20.6572C14.6116 20.3682 14.6797 20.0543 14.6797 19.7368C14.6797 19.6594 14.6756 19.5821 14.6677 19.5053L21.4658 17.9357C21.9805 18.6611 22.8614 19.0325 23.7401 18.8949L26.1746 25.9582C25.5274 26.0435 24.9137 26.2962 24.3942 26.6915L14.48 20.6572ZM26.6687 32.5229C25.1055 32.5229 23.8383 31.2557 23.8383 29.6925C23.8383 28.1293 25.1055 26.8621 26.6687 26.8621C28.2319 26.8621 29.4991 28.1293 29.4991 29.6925V29.6926C29.4973 31.255 28.2311 32.5212 26.6687 32.5229ZM29.585 27.31C28.9899 26.5815 28.1438 26.1022 27.213 25.9662L24.6181 18.5665C25.1648 18.225 25.5475 17.6744 25.6771 17.0431L34.1095 17.0262C34.2808 17.9404 34.9302 18.6921 35.8098 18.9943L29.585 27.31ZM36.6423 18.1954C35.7371 18.1954 35.0033 17.4615 35.0033 16.5564C35.0033 15.6512 35.7371 14.9174 36.6423 14.9174C37.5474 14.9174 38.2813 15.6512 38.2813 16.5564V16.5565C38.2802 17.4613 37.547 18.1944 36.6423 18.1954Z" fill="#284268"/>
</svg>
