<svg width="40" height="40" viewBox="0 0 40 40" fill="none" xmlns="http://www.w3.org/2000/svg">
<g clip-path="url(#clip0)">
<path d="M38.296 33.8335C37.5617 33.8335 36.9345 34.3004 36.6954 34.9528H33.9783V32.8237H38.8231C39.4034 32.8237 39.8755 32.3516 39.8755 31.7713V15.483C39.8755 15.2019 39.7661 14.9376 39.5673 14.7388L37.5076 12.6792V7.64009C38.1703 7.40649 38.6468 6.77439 38.6468 6.03267C38.6468 5.09314 37.8824 4.32876 36.9428 4.32876C36.0032 4.32876 35.2388 5.09321 35.2388 6.03267C35.2388 6.75939 35.6962 7.38095 36.3382 7.62548V11.0617C36.2507 10.2036 35.5239 9.53181 34.643 9.53181C33.7034 9.53181 32.9391 10.2962 32.9391 11.2357C32.9391 11.9621 33.3961 12.5834 34.0375 12.8281V16.2806C34.0375 16.5617 34.147 16.8259 34.3458 17.0247L36.4055 19.0844V29.0915H33.9781V20.5301C33.9781 19.4285 33.0948 18.5302 31.9993 18.5045V12.1006C31.9993 8.88259 30.7411 5.85564 28.4565 3.57743C26.1722 1.29931 23.1407 0.0475879 19.9234 0.0586035C17.6033 0.0650879 15.352 0.741182 13.413 2.01376C13.143 2.19103 13.0678 2.55345 13.245 2.82337C13.4223 3.09329 13.7847 3.1686 14.0546 2.99142C15.8034 1.8436 17.834 1.23384 19.9267 1.22798C19.9372 1.22798 19.9473 1.2279 19.9578 1.2279C22.8515 1.2279 25.5756 2.35579 27.6311 4.40548C29.6941 6.46274 30.8302 9.19556 30.8302 12.1006V18.5033H27.9987V16.7525C27.9987 16.4295 27.7369 16.1678 27.414 16.1678C27.0911 16.1678 26.8293 16.4295 26.8293 16.7525V18.5033H7.96375C6.84617 18.5033 5.93687 19.4125 5.93687 20.5302V29.0917H3.43852V19.0845L5.4982 17.0248C5.69695 16.826 5.80648 16.5617 5.80648 16.2806V14.755C6.44797 14.5102 6.90492 13.8889 6.90492 13.1627C6.90492 12.2231 6.14055 11.4587 5.20094 11.4587C4.44852 11.4587 3.80891 11.9491 3.58375 12.6269V3.31649C4.2257 3.07196 4.68313 2.4504 4.68313 1.72368C4.68313 0.78415 3.91875 0.0197754 2.97914 0.0197754C2.03953 0.0197754 1.27516 0.784229 1.27516 1.72368C1.27516 2.46532 1.75156 3.09751 2.41437 3.3311V12.6792L0.354687 14.7388C0.155938 14.9375 0.0464062 15.2019 0.0464062 15.4829V31.7713C0.0464062 32.3516 0.518516 32.8237 1.09883 32.8237H5.9368V34.9528H3.30461C3.06555 34.3003 2.43828 33.8335 1.70398 33.8335C0.764375 33.8335 0 34.598 0 35.5375C0 36.477 0.764375 37.2414 1.70398 37.2414C2.43828 37.2414 3.06547 36.7745 3.30461 36.1222H5.93695V37.9535C5.93695 39.0711 6.84617 39.9803 7.96383 39.9803H23.1622C23.4851 39.9803 23.7469 39.7186 23.7469 39.3956C23.7469 39.0727 23.4851 38.811 23.1622 38.811H7.96375C7.49094 38.811 7.10625 38.4263 7.10625 37.9535V20.5301C7.10625 20.0573 7.49094 19.6726 7.96375 19.6726H31.9514C32.4242 19.6726 32.8089 20.0573 32.8089 20.5301V37.9535C32.8089 38.4263 32.4242 38.811 31.9514 38.811H26.0367C25.7138 38.811 25.452 39.0727 25.452 39.3956C25.452 39.7186 25.7138 39.9803 26.0367 39.9803H31.9514C33.069 39.9803 33.9783 39.0711 33.9783 37.9535V36.1222H36.6955C36.9345 36.7746 37.5618 37.2414 38.2961 37.2414C39.2357 37.2414 40.0001 36.477 40.0001 35.5375C40 34.598 39.2356 33.8335 38.296 33.8335V33.8335ZM1.70398 36.0721C1.40922 36.0721 1.16938 35.8323 1.16938 35.5375C1.16938 35.2427 1.40922 35.0028 1.70398 35.0028C1.99875 35.0028 2.23859 35.2427 2.23859 35.5375C2.23859 35.8323 1.99875 36.0721 1.70398 36.0721ZM5.20094 12.628C5.4957 12.628 5.73555 12.8679 5.73555 13.1627C5.73555 13.4574 5.4957 13.6973 5.20094 13.6973C4.90617 13.6973 4.66633 13.4574 4.66633 13.1627C4.66633 12.8679 4.90617 12.628 5.20094 12.628ZM2.97914 1.18907C3.27391 1.18907 3.51375 1.42892 3.51375 1.72368C3.51375 2.01853 3.27391 2.25837 2.97914 2.25837C2.68437 2.25837 2.44453 2.01853 2.44453 1.72368C2.44453 1.42892 2.68437 1.18907 2.97914 1.18907V1.18907ZM1.21586 31.6544V15.5314L3.27563 13.4716C3.37109 13.376 3.44539 13.2651 3.49742 13.1447C3.49734 13.1506 3.49695 13.1566 3.49695 13.1625C3.49695 13.9045 3.97383 14.5368 4.63703 14.7702V16.232L2.57734 18.2917C2.37859 18.4905 2.26906 18.7549 2.26906 19.0359V29.2085C2.26906 29.7888 2.74117 30.2609 3.32148 30.2609H5.9368V31.6543H1.21586V31.6544ZM36.9429 5.49814C37.2377 5.49814 37.4775 5.73798 37.4775 6.03274C37.4775 6.32759 37.2377 6.56743 36.9429 6.56743C36.6481 6.56743 36.4083 6.32759 36.4083 6.03274C36.4083 5.73798 36.6481 5.49814 36.9429 5.49814ZM34.6431 10.7012C34.9379 10.7012 35.1777 10.941 35.1777 11.2358C35.1777 11.5306 34.9379 11.7705 34.6431 11.7705C34.3484 11.7705 34.1085 11.5306 34.1085 11.2358C34.1085 10.941 34.3484 10.7012 34.6431 10.7012ZM36.5225 30.261C37.1028 30.261 37.5749 29.7888 37.5749 29.2085V19.036C37.5749 18.7549 37.4655 18.4906 37.2666 18.2918L35.207 16.2321V12.8434C35.8177 12.6286 36.2704 12.0755 36.3382 11.4099V12.7275C36.3382 13.0086 36.4477 13.2728 36.6465 13.4717L38.7062 15.5314V31.6544H33.9782V30.261H36.5225ZM38.296 36.0721C38.0012 36.0721 37.7614 35.8323 37.7614 35.5375C37.7614 35.2427 38.0012 35.0028 38.296 35.0028C38.5908 35.0028 38.8306 35.2427 38.8306 35.5375C38.8306 35.8323 38.5908 36.0721 38.296 36.0721Z" fill="black"/>
<path d="M9.12398 15.9111H11.8777C12.5439 15.9111 13.086 15.3691 13.086 14.7028V12.1954C13.086 8.39051 16.1381 5.26543 19.8898 5.22918C21.7377 5.20871 23.4758 5.91848 24.7903 7.2202C26.1052 8.52238 26.8293 10.2555 26.8293 12.1004V13.903C26.8293 14.226 27.0911 14.4877 27.414 14.4877C27.7369 14.4877 27.9987 14.226 27.9987 13.903V12.1004C27.9987 9.94106 27.1515 7.91277 25.6132 6.38926C24.0752 4.86613 22.0398 4.04035 19.8784 4.05981C15.4884 4.10238 11.9167 7.75192 11.9167 12.1954V14.7028C11.9167 14.7243 11.8992 14.7418 11.8777 14.7418H9.12406C9.10258 14.7418 9.08508 14.7243 9.08508 14.7028V12.2114C9.08508 9.35559 10.1714 6.64653 12.1439 4.58324C12.367 4.34981 12.3587 3.97973 12.1253 3.7566C11.8918 3.5334 11.5218 3.54168 11.2987 3.7752C9.11719 6.05707 7.91578 9.05317 7.91578 12.2114V14.7028C7.91562 15.3691 8.45773 15.9111 9.12398 15.9111V15.9111Z" fill="black"/>
<path d="M19.6111 32.4032C19.5981 32.4034 19.5852 32.4036 19.5722 32.4036C18.626 32.4036 17.8201 31.707 17.6891 30.7684C17.6769 30.6813 17.6707 30.5918 17.6707 30.5027C17.6707 30.1797 17.4089 29.918 17.086 29.918C16.7631 29.918 16.5013 30.1797 16.5013 30.5027C16.5013 30.6458 16.5113 30.7897 16.5309 30.9301C16.7426 32.4471 18.044 33.573 19.5719 33.5729C19.5927 33.5729 19.6137 33.5727 19.6345 33.5722C21.2355 33.54 22.5546 32.2631 22.6374 30.6652C22.6816 29.8143 22.3834 29.006 21.7979 28.3893C21.2121 27.7722 20.4214 27.4325 19.5715 27.4325C19.1898 27.4325 18.8851 27.4608 18.617 27.514L18.9804 25.321H21.5379C21.8608 25.321 22.1226 25.0593 22.1226 24.7363C22.1226 24.4133 21.8608 24.1516 21.5379 24.1516H18.4846C18.1986 24.1516 17.9545 24.3586 17.9078 24.6408L17.3029 28.2916C17.2327 28.6956 17.7202 29.1782 18.2251 28.8704C18.5745 28.7132 18.8755 28.6018 19.5714 28.6018C20.0975 28.6018 20.587 28.8122 20.9498 29.1944C21.3123 29.5763 21.497 30.0771 21.4696 30.6047C21.4185 31.5932 20.602 32.3832 19.6111 32.4032V32.4032Z" fill="black"/>
<path d="M13.0553 28.3632C11.7639 30.2084 10.993 31.2178 10.5788 31.76C10.0774 32.4166 9.94257 32.593 10.0487 32.9382C10.1087 33.133 10.2574 33.2828 10.4568 33.3492C10.5367 33.3759 13.6346 33.4065 14.7902 33.392C15.1131 33.3879 15.3716 33.1229 15.3675 32.8001C15.3634 32.4796 15.1025 32.2228 14.783 32.2228C14.7805 32.2228 14.778 32.2228 14.7755 32.2228C13.6701 32.2366 12.4847 32.2435 11.6831 32.2405C12.1313 31.6515 12.8716 30.6652 14.0133 29.0339C14.5079 28.3271 14.829 27.6652 14.9678 27.0663C14.9814 26.9821 15.0134 26.779 15.0231 26.62C15.0231 25.151 13.828 23.9558 12.359 23.9558C11.0887 23.9558 9.98937 24.8594 9.74484 26.1042C9.68257 26.4211 9.88905 26.7285 10.2059 26.7907C10.5226 26.8526 10.8301 26.6464 10.8923 26.3296C11.0294 25.6317 11.6462 25.1252 12.359 25.1252C13.1718 25.1252 13.8534 25.8075 13.8534 26.5858C13.8534 26.6976 13.8223 26.8293 13.8223 26.8293C13.7134 27.2755 13.4555 27.7914 13.0553 28.3632V28.3632Z" fill="black"/>
<path d="M29.9473 30.532C29.9473 28.9138 28.6309 27.5974 27.0127 27.5974C26.6598 27.5974 26.3214 27.66 26.0078 27.7746C26.8022 26.1767 27.9134 25.3228 27.9295 25.3107C28.1874 25.1178 28.2408 24.7522 28.0484 24.4935C27.8556 24.2346 27.4893 24.1806 27.2303 24.3734C27.1209 24.4547 24.5592 26.4 24.1147 30.0701C24.0908 30.2206 24.078 30.3748 24.078 30.532C24.078 32.1502 25.3945 33.4667 27.0127 33.4667C28.6308 33.4667 29.9473 32.1502 29.9473 30.532V30.532ZM25.2473 30.532C25.2473 30.4449 25.2538 30.3592 25.2661 30.2755C25.267 30.2695 25.2684 30.2636 25.269 30.2575C25.2693 30.255 25.2697 30.2526 25.27 30.2501C25.4054 29.4103 26.1351 28.7667 27.0126 28.7667C27.986 28.7667 28.778 29.5585 28.778 30.532C28.778 31.5054 27.986 32.2974 27.0126 32.2974C26.0392 32.2974 25.2473 31.5053 25.2473 30.532V30.532Z" fill="black"/>
</g>
<defs>
<clipPath id="clip0">
<rect width="40" height="40" fill="white"/>
</clipPath>
</defs>
</svg>
