<?xml version="1.0" encoding="UTF-8"?>
<svg xmlns="http://www.w3.org/2000/svg" xmlns:xlink="http://www.w3.org/1999/xlink" width="10pt" height="10pt" viewBox="0 0 10 10" version="1.1">
<g id="surface1">
<path style=" stroke:none;fill-rule:nonzero;fill:rgb(0%,0%,0%);fill-opacity:1;" d="M 5 1.921875 C 5.082031 1.921875 5.144531 1.855469 5.144531 1.777344 L 5.144531 1.488281 C 5.144531 1.40625 5.082031 1.339844 5 1.339844 C 4.917969 1.339844 4.855469 1.40625 4.855469 1.488281 L 4.855469 1.777344 C 4.855469 1.855469 4.917969 1.921875 5 1.921875 Z M 5 1.921875 "/>
<path style=" stroke:none;fill-rule:nonzero;fill:rgb(0%,0%,0%);fill-opacity:1;" d="M 7.238281 3.871094 C 7.320312 3.871094 7.382812 3.804688 7.382812 3.726562 C 7.382812 3.644531 7.320312 3.578125 7.238281 3.578125 L 6.949219 3.578125 C 6.867188 3.578125 6.800781 3.644531 6.800781 3.726562 C 6.800781 3.804688 6.867188 3.871094 6.949219 3.871094 Z M 7.238281 3.871094 "/>
<path style=" stroke:none;fill-rule:nonzero;fill:rgb(0%,0%,0%);fill-opacity:1;" d="M 4.855469 5.960938 C 4.855469 6.042969 4.917969 6.109375 5 6.109375 C 5.082031 6.109375 5.144531 6.042969 5.144531 5.960938 L 5.144531 5.675781 C 5.144531 5.59375 5.082031 5.527344 5 5.527344 C 4.917969 5.527344 4.855469 5.59375 4.855469 5.675781 Z M 4.855469 5.960938 "/>
<path style=" stroke:none;fill-rule:nonzero;fill:rgb(0%,0%,0%);fill-opacity:1;" d="M 3.050781 3.871094 C 3.132812 3.871094 3.199219 3.804688 3.199219 3.726562 C 3.199219 3.644531 3.132812 3.578125 3.050781 3.578125 L 2.761719 3.578125 C 2.679688 3.578125 2.617188 3.644531 2.617188 3.726562 C 2.617188 3.804688 2.679688 3.871094 2.761719 3.871094 Z M 3.050781 3.871094 "/>
<path style=" stroke:none;fill-rule:nonzero;fill:rgb(0%,0%,0%);fill-opacity:1;" d="M 4.855469 3.726562 C 4.855469 3.804688 4.917969 3.871094 5 3.871094 L 5.753906 3.871094 C 5.835938 3.871094 5.902344 3.804688 5.902344 3.726562 C 5.902344 3.644531 5.835938 3.578125 5.753906 3.578125 L 5.148438 3.578125 L 5.148438 2.441406 C 5.148438 2.359375 5.082031 2.292969 5 2.292969 C 4.917969 2.292969 4.855469 2.359375 4.855469 2.441406 Z M 4.855469 3.726562 "/>
<path style=" stroke:none;fill-rule:nonzero;fill:rgb(0%,0%,0%);fill-opacity:1;" d="M 9.722656 8.296875 L 8.574219 8.296875 C 8.421875 8.296875 8.296875 8.421875 8.296875 8.574219 L 8.296875 9.003906 L 7.40625 9.003906 L 6.996094 8.664062 C 6.933594 8.613281 6.839844 8.625 6.789062 8.6875 C 6.738281 8.75 6.746094 8.839844 6.808594 8.890625 L 6.945312 9.003906 L 5.851562 9.003906 L 5.851562 8.574219 C 5.851562 8.421875 5.726562 8.296875 5.574219 8.296875 L 4.425781 8.296875 C 4.273438 8.296875 4.148438 8.421875 4.148438 8.574219 L 4.148438 9.003906 L 3.148438 9.003906 L 2.738281 8.664062 C 2.675781 8.613281 2.582031 8.625 2.53125 8.6875 C 2.480469 8.75 2.488281 8.839844 2.550781 8.890625 L 2.6875 9.003906 L 1.703125 9.003906 L 1.703125 8.574219 C 1.703125 8.421875 1.578125 8.296875 1.425781 8.296875 L 0.277344 8.296875 C 0.125 8.296875 0 8.421875 0 8.574219 L 0 9.722656 C 0 9.875 0.125 10 0.277344 10 L 1.425781 10 C 1.578125 10 1.703125 9.875 1.703125 9.722656 L 1.703125 9.296875 L 2.6875 9.296875 L 2.550781 9.40625 C 2.488281 9.457031 2.480469 9.550781 2.53125 9.613281 C 2.5625 9.648438 2.601562 9.664062 2.644531 9.664062 C 2.679688 9.664062 2.710938 9.65625 2.738281 9.632812 L 3.148438 9.296875 L 4.148438 9.296875 L 4.148438 9.722656 C 4.148438 9.875 4.273438 10 4.425781 10 L 5.574219 10 C 5.726562 10 5.851562 9.875 5.851562 9.722656 L 5.851562 9.296875 L 6.945312 9.296875 L 6.808594 9.40625 C 6.746094 9.457031 6.738281 9.550781 6.789062 9.613281 C 6.816406 9.648438 6.859375 9.664062 6.902344 9.664062 C 6.933594 9.664062 6.96875 9.65625 6.996094 9.632812 L 7.40625 9.296875 L 8.296875 9.296875 L 8.296875 9.722656 C 8.296875 9.875 8.421875 10 8.574219 10 L 8.855469 10 C 8.9375 10 9.003906 9.933594 9.003906 9.855469 C 9.003906 9.773438 8.9375 9.707031 8.855469 9.707031 L 8.589844 9.707031 L 8.589844 8.589844 L 9.707031 8.589844 L 9.707031 9.707031 L 9.441406 9.707031 C 9.359375 9.707031 9.296875 9.773438 9.296875 9.851562 C 9.296875 9.933594 9.359375 10 9.441406 10 L 9.722656 10 C 9.875 10 10 9.875 10 9.722656 L 10 8.574219 C 10 8.421875 9.875 8.296875 9.722656 8.296875 Z M 1.410156 9.707031 L 0.292969 9.707031 L 0.292969 8.589844 L 1.410156 8.589844 Z M 5.558594 9.707031 L 4.441406 9.707031 L 4.441406 8.589844 L 5.558594 8.589844 Z M 5.558594 9.707031 "/>
<path style=" stroke:none;fill-rule:nonzero;fill:rgb(0%,0%,0%);fill-opacity:1;" d="M 2.492188 5.019531 C 2.421875 5.0625 2.398438 5.152344 2.441406 5.21875 C 2.699219 5.660156 3.066406 6.027344 3.503906 6.285156 C 3.957031 6.550781 4.472656 6.6875 5 6.6875 C 6.632812 6.6875 7.964844 5.359375 7.964844 3.726562 C 7.964844 2.089844 6.632812 0.761719 5 0.761719 C 3.367188 0.761719 2.035156 2.089844 2.035156 3.726562 C 2.035156 4.042969 2.085938 4.359375 2.1875 4.660156 C 2.210938 4.734375 2.292969 4.777344 2.371094 4.75 C 2.449219 4.726562 2.488281 4.644531 2.464844 4.566406 C 2.375 4.296875 2.328125 4.011719 2.328125 3.726562 C 2.328125 2.253906 3.527344 1.054688 5 1.054688 C 6.472656 1.054688 7.671875 2.253906 7.671875 3.726562 C 7.671875 5.199219 6.472656 6.394531 5 6.394531 C 4.523438 6.394531 4.058594 6.269531 3.652344 6.03125 C 3.257812 5.800781 2.925781 5.46875 2.695312 5.070312 C 2.652344 5.003906 2.5625 4.980469 2.492188 5.019531 Z M 2.492188 5.019531 "/>
<path style=" stroke:none;fill-rule:nonzero;fill:rgb(0%,0%,0%);fill-opacity:1;" d="M 5 7.449219 C 7.054688 7.449219 8.726562 5.777344 8.726562 3.726562 C 8.726562 2.992188 8.511719 2.28125 8.109375 1.671875 C 8.0625 1.605469 7.972656 1.585938 7.90625 1.632812 C 7.839844 1.675781 7.820312 1.765625 7.863281 1.835938 C 8.234375 2.394531 8.433594 3.050781 8.433594 3.726562 C 8.433594 5.617188 6.890625 7.15625 5 7.15625 C 3.109375 7.15625 1.566406 5.617188 1.566406 3.726562 C 1.566406 1.832031 3.109375 0.292969 5 0.292969 C 5.484375 0.292969 5.953125 0.390625 6.394531 0.589844 C 6.820312 0.777344 7.195312 1.046875 7.511719 1.386719 C 7.570312 1.449219 7.660156 1.449219 7.71875 1.394531 C 7.78125 1.339844 7.78125 1.246094 7.726562 1.1875 C 7.382812 0.816406 6.972656 0.527344 6.511719 0.320312 C 6.035156 0.109375 5.527344 0 5 0 C 2.945312 0 1.273438 1.671875 1.273438 3.726562 C 1.273438 5.777344 2.945312 7.449219 5 7.449219 Z M 5 7.449219 "/>
</g>
</svg>
