<svg width="40" height="40" viewBox="0 0 40 40" fill="none" xmlns="http://www.w3.org/2000/svg">
<path d="M26.5967 13.7157C26.2265 13.615 25.845 13.6125 25.4831 13.705L24.2673 11.5801L23.2489 12.1627L24.4647 14.2879C24.2017 14.5528 24.01 14.883 23.9093 15.2532C23.7558 15.8174 23.8312 16.4077 24.1217 16.9152L24.7318 17.9818C25.022 18.4893 25.4929 18.8533 26.0571 19.0071C26.2482 19.059 26.4426 19.085 26.6354 19.085C26.8161 19.085 26.9955 19.0621 27.1707 19.0175L27.41 19.4353C26.7361 20.1171 26.5677 21.1907 27.0663 22.0623L27.6764 23.1288C27.9669 23.6364 28.4375 24.0004 29.0018 24.1539C29.1928 24.2061 29.3872 24.2318 29.5801 24.2318C29.7607 24.2318 29.9405 24.2092 30.1154 24.1643L31.34 26.3051L32.3587 25.7225L31.1334 23.5811C31.8073 22.8997 31.9757 21.8257 31.4771 20.9545L30.867 19.8879C30.3683 19.0163 29.3573 18.6174 28.4283 18.8527L28.1891 18.4349C28.4525 18.1697 28.6438 17.8398 28.7445 17.4697C28.898 16.9054 28.8226 16.3149 28.5321 15.8074L27.9221 14.7411C27.6318 14.2333 27.1609 13.8692 26.5967 13.7157V13.7157ZM29.8483 20.4705L30.4587 21.537C30.6284 21.8337 30.6314 22.181 30.4977 22.4697L30.1566 21.8737L29.1382 22.4562L29.4797 23.0529C29.4229 23.0474 29.3661 23.037 29.31 23.0217C29.0482 22.9506 28.8297 22.7816 28.6948 22.546L28.0847 21.4797C27.915 21.1827 27.9117 20.8354 28.0457 20.5468L28.3954 21.158L29.4141 20.5754L29.064 19.9639C29.3808 19.995 29.6786 20.1738 29.8483 20.4705V20.4705ZM27.2119 16.7269L26.1935 17.3094L26.5347 17.9061C26.478 17.9006 26.4212 17.8902 26.3651 17.8749C26.1032 17.8035 25.8847 17.6348 25.7501 17.3992L25.1401 16.3326C25.0052 16.097 24.9701 15.8229 25.0415 15.5611C25.0568 15.5049 25.0766 15.4509 25.1004 15.399L25.4507 16.0112L26.4691 15.4283L26.1194 14.8171C26.4362 14.8479 26.734 15.0267 26.9037 15.3234L27.5137 16.39C27.6486 16.6255 27.6837 16.8993 27.6123 17.1614C27.597 17.2176 27.5772 17.2716 27.5534 17.3235L27.2119 16.7269Z" fill="black"/>
<path d="M8.6911 26.3051L9.91638 24.1637C10.0928 24.2083 10.2725 24.2302 10.451 24.2302C11.2112 24.2302 11.951 23.8344 12.3547 23.1285L12.9651 22.0623C13.2553 21.5547 13.3307 20.9642 13.1772 20.4C13.0765 20.0298 12.8848 19.6999 12.6218 19.4347L12.861 19.0169C13.0377 19.0615 13.2172 19.0834 13.3957 19.0834C14.1559 19.0834 14.8956 18.6876 15.2997 17.9818L15.9097 16.9152C16.4084 16.0439 16.2399 14.9703 15.5661 14.2885L16.7825 12.1627L15.7642 11.5801L14.5477 13.7059C13.6188 13.4703 12.6077 13.8695 12.1091 14.7408L11.499 15.8074C11.0004 16.679 11.1688 17.7526 11.8427 18.434L11.6034 18.8521C11.2415 18.7596 10.86 18.7618 10.4898 18.8625C9.92554 19.016 9.45496 19.3801 9.16443 19.8876L8.55438 20.9542C8.05573 21.8257 8.22418 22.8994 8.89771 23.5811L7.67273 25.7222L8.6911 26.3051ZM12.4188 17.1614C12.3477 16.8993 12.3825 16.6255 12.5174 16.39L13.1274 15.3234C13.2971 15.0267 13.595 14.8482 13.912 14.8171L13.5623 15.4286L14.5807 16.0112L14.9304 15.3997C15.0644 15.6887 15.0613 16.0359 14.8914 16.3326L14.2813 17.3992C14.1113 17.6958 13.8138 17.8746 13.4967 17.9055L13.8376 17.3098L12.8192 16.7269L12.478 17.3235C12.4539 17.2716 12.4341 17.2176 12.4188 17.1614ZM9.57275 21.537L10.1828 20.4705C10.3177 20.2349 10.5359 20.0658 10.7977 19.9947C10.8539 19.9794 10.9106 19.9691 10.9674 19.9636L10.6174 20.5754L11.6357 21.158L11.9855 20.5468C12.1194 20.8354 12.1164 21.1827 11.9467 21.4797L11.3364 22.546C11.1667 22.8429 10.8688 23.0214 10.5521 23.0526L10.8929 22.4565L9.87457 21.874L9.53369 22.47C9.39972 22.181 9.40277 21.8337 9.57275 21.537V21.537Z" fill="black"/>
<path d="M25.9052 32.4786L28.3536 32.4716L28.3502 31.2982L25.9009 31.3052C25.6418 30.3848 24.7946 29.7085 23.7933 29.7085H23.7869L22.5583 29.7122C21.5543 29.7149 20.7077 30.397 20.4535 31.3207L19.9719 31.3223C19.8715 30.9625 19.6793 30.6329 19.407 30.3625C18.9938 29.9517 18.446 29.7256 17.8635 29.7256H17.8571L16.6284 29.7289C16.0437 29.7308 15.4947 29.96 15.0824 30.3747C14.8117 30.6469 14.6213 30.9774 14.523 31.3378L12.0566 31.3448L12.0599 32.5179L14.527 32.5109C14.7861 33.4316 15.6335 34.1076 16.6348 34.1076H16.6409L17.8696 34.1039C18.4543 34.1024 19.0036 33.8729 19.4159 33.4585C19.6863 33.1863 19.8767 32.8558 19.9753 32.4954L20.4559 32.4938C20.5563 32.8536 20.7489 33.1832 21.0208 33.4539C21.434 33.8647 21.9818 34.0905 22.5644 34.0905H22.5708L23.7994 34.0872C24.3842 34.0853 24.9335 33.8561 25.3458 33.4414C25.6161 33.1695 25.8066 32.839 25.9052 32.4786V32.4786ZM18.584 32.6312C18.3926 32.8237 18.1378 32.9299 17.8665 32.9308L16.6379 32.9342H16.6348C16.2943 32.9342 15.9918 32.7657 15.8075 32.5073L16.4941 32.5054L16.4908 31.332L15.8032 31.3342C15.8362 31.2875 15.8731 31.2432 15.9143 31.202C16.1057 31.0095 16.3605 30.9033 16.6318 30.9023L17.8604 30.8987H17.8635C18.1339 30.8987 18.3881 31.0037 18.5797 31.1944C18.6212 31.2353 18.6584 31.2792 18.6917 31.3259L17.9865 31.3278L17.9898 32.5012L18.6951 32.499C18.6621 32.5457 18.6249 32.59 18.584 32.6312V32.6312ZM23.7961 32.9138L22.5674 32.9174H22.5644C22.294 32.9174 22.0398 32.8124 21.8481 32.622C21.8069 32.5808 21.7694 32.5369 21.7365 32.4905L22.4237 32.4883L22.4203 31.3152L21.7337 31.3171C21.9171 31.0571 22.2198 30.8865 22.5616 30.8853L23.7903 30.8819H23.7933C24.1339 30.8819 24.436 31.0504 24.6207 31.3088L23.9163 31.311L23.9197 32.4841L24.6246 32.4822C24.5917 32.5289 24.5547 32.5729 24.5135 32.6144C24.3222 32.8066 24.0674 32.9131 23.7961 32.9138V32.9138Z" fill="black"/>
<path d="M20.6021 16.5472V10.0497L26.2292 6.80084L25.6424 5.78491L20.0156 9.03351L14.3887 5.78491L13.8019 6.80084L19.429 10.0497V16.5472H20.6021Z" fill="black"/>
<path d="M37.5516 26.3562L31.9263 29.6078L26.297 26.3614L25.7108 27.3776L31.34 30.6241L31.3431 37.1216L32.5162 37.1213L32.5134 30.6238L38.1387 27.3718L37.5516 26.3562Z" fill="black"/>
<path d="M8.65845 37.0797V30.5822L14.2853 27.3336L13.6987 26.3177L8.0719 29.5663L2.44415 26.3174L1.8576 27.3336L7.48505 30.5822V37.0797H8.65845Z" fill="black"/>
<path d="M13.1174 5.72815L20.0156 1.7453L26.9138 5.72815V13.0289H28.0872V5.05066L20.0156 0.390625L11.9443 5.05066V13.0289H13.1174V5.72815Z" fill="black"/>
<path d="M20.0156 19.0308L23.2559 17.1601L22.6694 16.1442L20.0156 17.6761L17.3611 16.1436L16.7746 17.1595L20.0156 19.0308Z" fill="black"/>
<path d="M8.0716 38.209L1.1734 34.2262V26.2608L7.58148 22.5612L6.99494 21.5449L0 25.5836V34.9037L8.0716 39.5637L15.5209 35.2629L14.9344 34.2466L8.0716 38.209Z" fill="black"/>
<path d="M16.1429 28.9388V25.5834L12.9938 23.7651L12.4072 24.7814L14.9698 26.2606V28.9388H16.1429Z" fill="black"/>
<path d="M39.9954 25.6209L33.0353 21.6069L32.449 22.6232L38.8226 26.2987L38.8266 34.2641L31.9302 38.2503L25.1865 34.3611L24.6002 35.3774L31.9308 39.605L40 34.941L39.9954 25.6209Z" fill="black"/>
<path d="M27.0514 23.7798L23.8525 25.6288L23.8541 28.7978L25.0275 28.7972L25.0259 26.3057L27.6385 24.7954L27.0514 23.7798Z" fill="black"/>
<path d="M16.3336 6.13813L15.7455 5.12281L16.7606 4.53473L17.3489 5.54975L16.3336 6.13813ZM23.2962 5.89734L20.0162 4.00372L19.7174 4.17706L19.129 3.16174L20.015 2.64844L23.8831 4.88141L23.2962 5.89734ZM18.0255 5.1576L17.4374 4.14227L18.4525 3.5542L19.0405 4.56922L18.0255 5.1576Z" fill="black"/>
<path d="M34.1779 36.0477L33.5907 35.0321L36.8698 33.1367L36.8692 32.7912L38.0423 32.7888L38.0444 33.8126L34.1779 36.0477ZM36.8674 32.009L36.8649 30.8359L38.038 30.8332L38.0408 32.0066L36.8674 32.009ZM36.8631 30.0538L36.8607 28.8804L38.0341 28.8779L38.0365 30.051L36.8631 30.0538Z" fill="black"/>
<path d="M6.23352 36.2353L1.95557 33.775V32.5479H3.12866V33.0966L6.81824 35.2184L6.23352 36.2353ZM1.95557 31.7657V30.5923H3.12866V31.7654L1.95557 31.7657ZM3.12866 29.8101H1.95557V28.6367H3.12866V29.8101Z" fill="black"/>
</svg>
