<svg width="40" height="40" viewBox="0 0 40 40" fill="none" xmlns="http://www.w3.org/2000/svg">
<g clip-path="url(#clip0)">
<path d="M19.1668 10.2435V16.1879L13.5724 12.5656V6.79346L19.1668 10.2435Z" fill="#B1DCC1"/>
<path d="M19.1668 16.4657C19.1132 16.4658 19.0607 16.4503 19.0157 16.4212L13.4213 12.799C13.3423 12.7477 13.2946 12.6599 13.2946 12.5657V6.79349C13.2946 6.64008 13.4189 6.51571 13.5723 6.51562C13.6237 6.51562 13.6742 6.5299 13.718 6.55681L19.3124 10.0069C19.3944 10.0576 19.4442 10.1471 19.444 10.2435V16.188C19.444 16.3414 19.3197 16.4658 19.1662 16.4658H19.1668V16.4657ZM13.8502 12.4146L18.889 15.6774V10.3996L13.8502 7.29244V12.4146Z" fill="#323C6B"/>
<path d="M24.7612 6.79346V12.5656L19.1668 16.1879V10.2435L24.7612 6.79346Z" fill="#B6D2DD"/>
<path d="M19.1668 16.4657C19.0134 16.4657 18.889 16.3414 18.889 16.1879V10.2435C18.8889 10.1471 18.9387 10.0576 19.0207 10.0068L24.6151 6.55687C24.7457 6.47645 24.9168 6.51723 24.9972 6.64788C25.0242 6.69168 25.0384 6.74208 25.0384 6.79354V12.5657C25.0385 12.6599 24.9908 12.7478 24.9118 12.7991L19.3174 16.4213C19.2725 16.4503 19.2202 16.4657 19.1668 16.4657V16.4657ZM19.4446 10.3986V15.6763L24.4834 12.4135V7.29136L19.4446 10.3986Z" fill="#323C6B"/>
<path d="M23.6501 7.47852V13.1212L19.1668 16.024V16.1879L24.7612 12.5656V6.79346L23.6501 7.47852Z" fill="#ACC6CC"/>
<path d="M19.1668 16.4657C19.0134 16.4657 18.889 16.3414 18.889 16.1879V10.2435C18.8889 10.1471 18.9387 10.0576 19.0207 10.0068L24.6151 6.55687C24.7457 6.47645 24.9168 6.51723 24.9972 6.64788C25.0242 6.69168 25.0384 6.74208 25.0384 6.79354V12.5657C25.0385 12.6599 24.9908 12.7478 24.9118 12.7991L19.3174 16.4213C19.2725 16.4503 19.2202 16.4657 19.1668 16.4657V16.4657ZM19.4446 10.3986V15.6763L24.4834 12.4135V7.29136L19.4446 10.3986Z" fill="#323C6B"/>
<path d="M15.9919 3.62146C15.8385 3.62187 15.7138 3.49774 15.7134 3.34433C15.7132 3.24753 15.7634 3.15765 15.8458 3.107L19.0213 1.14926C19.1106 1.09413 19.2235 1.09413 19.3129 1.14926L21.0157 2.19929C21.1464 2.27987 21.1871 2.45105 21.1066 2.58179C21.026 2.71252 20.8548 2.75313 20.7241 2.67264L19.1668 1.71208L16.1374 3.58044C16.0937 3.60727 16.0433 3.62154 15.9919 3.62146V3.62146Z" fill="#323C6B"/>
<path d="M14.4329 4.58262C14.2795 4.58254 14.1552 4.458 14.1554 4.30459C14.1555 4.20852 14.2051 4.1193 14.2869 4.06873L14.5218 3.92373C14.6513 3.84144 14.823 3.87977 14.9052 4.0092C14.9875 4.13871 14.9492 4.31038 14.8197 4.39259C14.8177 4.3939 14.8156 4.3952 14.8135 4.39642L14.5785 4.54143C14.5347 4.56843 14.4843 4.58262 14.4329 4.58262Z" fill="#323C6B"/>
<path d="M24.7612 6.79348L19.1668 10.2435L13.5724 6.79348L19.1668 3.34351L24.7612 6.79348Z" fill="#FED19A"/>
<path d="M19.1668 10.5215C19.1154 10.5215 19.065 10.5073 19.0213 10.4804L13.4269 7.0304C13.2961 6.95007 13.2553 6.77905 13.3356 6.64832C13.3584 6.61113 13.3897 6.57989 13.4269 6.55706L19.0213 3.10708C19.1106 3.0522 19.2231 3.0522 19.3123 3.10708L24.9067 6.55706C25.0375 6.63739 25.0783 6.80841 24.998 6.93914C24.9751 6.97633 24.9439 7.00757 24.9067 7.0304L19.3124 10.4803C19.2686 10.5072 19.2182 10.5215 19.1668 10.5215V10.5215ZM14.1018 6.79365L19.1667 9.91699L24.2317 6.79316L19.1667 3.66982L14.1018 6.79365Z" fill="#323C6B"/>
<path d="M19.1668 10.5215C19.1154 10.5215 19.065 10.5073 19.0213 10.4804L13.4269 7.0304C13.2961 6.95007 13.2553 6.77905 13.3356 6.64832C13.3584 6.61113 13.3897 6.57989 13.4269 6.55706L19.0213 3.10708C19.1106 3.0522 19.2231 3.0522 19.3123 3.10708L24.9067 6.55706C25.0375 6.63739 25.0783 6.80841 24.998 6.93914C24.9751 6.97633 24.9439 7.00757 24.9067 7.0304L19.3124 10.4803C19.2686 10.5072 19.2182 10.5215 19.1668 10.5215V10.5215ZM14.1018 6.79365L19.1667 9.91699L24.2317 6.79316L19.1667 3.66982L14.1018 6.79365Z" fill="#323C6B"/>
<path d="M32.4611 32.5267V38.4767L26.8667 34.8545V29.0823L32.4611 32.5267Z" fill="#B6D2DD"/>
<path d="M32.4611 38.7545C32.4075 38.7546 32.355 38.7392 32.31 38.71L26.7156 35.0878C26.6366 35.0365 26.5889 34.9487 26.589 34.8545V29.0823C26.5889 28.9289 26.7132 28.8045 26.8667 28.8044C26.9181 28.8044 26.9685 28.8187 27.0123 28.8456L32.6067 32.2901C32.6889 32.3406 32.739 32.4302 32.7389 32.5267V38.4767C32.7389 38.6301 32.6145 38.7545 32.4611 38.7545V38.7545ZM27.1445 34.7034L32.1833 37.9656V32.6818L27.1445 29.5768V34.7034Z" fill="#323C6B"/>
<path d="M35.3156 38.8924C35.1622 38.8922 35.0381 38.7675 35.0383 38.6141C35.0385 38.5203 35.086 38.433 35.1645 38.3818L35.4234 38.2151C35.5511 38.13 35.7235 38.1646 35.8085 38.2923C35.8936 38.42 35.859 38.5924 35.7313 38.6775C35.7294 38.6787 35.7276 38.68 35.7256 38.6812L35.4667 38.8479C35.4217 38.8771 35.3692 38.8925 35.3156 38.8924V38.8924Z" fill="#323C6B"/>
<path d="M36.9006 37.8658C36.7472 37.8661 36.6226 37.7419 36.6224 37.5884C36.6222 37.494 36.6701 37.406 36.7494 37.3547L39.4444 35.6097V34.2436C39.4444 34.0902 39.5688 33.9658 39.7222 33.9658C39.8756 33.9658 40 34.0902 40 34.2436V35.7608C40.0001 35.855 39.9524 35.9428 39.8734 35.9941L37.0517 37.8213C37.0067 37.8504 36.9542 37.8659 36.9006 37.8658Z" fill="#323C6B"/>
<path d="M38.0556 29.0823V34.8545L32.4612 38.4767V32.5267L38.0556 29.0823Z" fill="#FED19A"/>
<path d="M32.4611 38.7545C32.3077 38.7545 32.1833 38.6302 32.1833 38.4768V32.5268C32.1833 32.4303 32.2333 32.3407 32.3156 32.2901L37.91 28.8457C38.0406 28.7653 38.2117 28.8061 38.2921 28.9367C38.319 28.9805 38.3333 29.0309 38.3333 29.0824V34.8546C38.3334 34.9487 38.2857 35.0366 38.2067 35.0879L32.6111 38.7101C32.5664 38.739 32.5144 38.7544 32.4611 38.7545V38.7545ZM32.7389 32.6818V37.9657L37.7778 34.7029V29.5768L32.7389 32.6818Z" fill="#323C6B"/>
<path d="M36.9445 29.7662V34.8545L32.4612 37.7572V38.4767L38.0556 34.8545V29.0823L36.9445 29.7662Z" fill="#F4BB87"/>
<path d="M32.4611 38.7545C32.3077 38.7545 32.1833 38.6302 32.1833 38.4768V32.5268C32.1833 32.4303 32.2333 32.3407 32.3156 32.2901L37.91 28.8457C38.0406 28.7653 38.2117 28.8061 38.2921 28.9367C38.319 28.9805 38.3333 29.0309 38.3333 29.0824V34.8546C38.3334 34.9487 38.2857 35.0366 38.2067 35.0879L32.6111 38.7101C32.5664 38.739 32.5144 38.7544 32.4611 38.7545V38.7545ZM32.7389 32.6818V37.9657L37.7778 34.7029V29.5768L32.7389 32.6818Z" fill="#323C6B"/>
<path d="M38.0555 29.0824L32.4611 32.5269L26.8667 29.0824L32.4611 25.0769L32.9556 25.4269L38.0555 29.0824Z" fill="#B1DCC1"/>
<path d="M32.4612 32.8047C32.4098 32.8047 32.3594 32.7905 32.3156 32.7636L26.7212 29.3192C26.5904 29.2389 26.5495 29.0679 26.6298 28.9371C26.6492 28.9054 26.6748 28.878 26.705 28.8564L32.2994 24.8508C32.3958 24.7821 32.5252 24.7821 32.6217 24.8508L33.1161 25.2009L38.2178 28.8547C38.3425 28.9441 38.3711 29.1177 38.2816 29.2424C38.2602 29.2723 38.233 29.2976 38.2016 29.317L32.6072 32.7614C32.5636 32.7891 32.513 32.8041 32.4612 32.8047V32.8047ZM27.3684 29.0653L32.4612 32.2009L37.5556 29.0648L32.4634 25.4181L27.3684 29.0653Z" fill="#323C6B"/>
<path d="M5.87241 32.5267V38.4767L0.278015 34.8545V29.0823L5.87241 32.5267Z" fill="#B6D2DD"/>
<path d="M5.87242 38.7545C5.81884 38.7546 5.76632 38.7392 5.7213 38.71L0.1269 35.0878C0.0478728 35.0365 0.000162689 34.9487 0.000244245 34.8545V29.0823C0.000162689 28.9289 0.124535 28.8045 0.277942 28.8044C0.329322 28.8044 0.379805 28.8187 0.4236 28.8456L6.018 32.2901C6.10021 32.3406 6.15028 32.4302 6.1502 32.5267V38.4767C6.1502 38.6301 6.02583 38.7545 5.87242 38.7545ZM0.555802 34.7034L5.59464 37.9656V32.6818L0.555802 29.5768V34.7034Z" fill="#323C6B"/>
<path d="M11.4669 29.0823V34.8545L5.87244 38.4767V32.5267L11.4669 29.0823Z" fill="#FED19A"/>
<path d="M5.87241 38.7545C5.71901 38.7545 5.59464 38.6302 5.59464 38.4768V32.5268C5.59464 32.4303 5.64463 32.3407 5.72684 32.2901L11.3212 28.8457C11.4519 28.7653 11.623 28.8061 11.7034 28.9367C11.7303 28.9805 11.7446 29.0309 11.7446 29.0824V34.8545C11.7447 34.9487 11.697 35.0366 11.6179 35.0879L6.02354 38.7101C5.97852 38.7391 5.92608 38.7546 5.87241 38.7545V38.7545ZM6.15019 32.6818V37.9657L11.189 34.7029V29.5768L6.15019 32.6818Z" fill="#323C6B"/>
<path d="M10.3558 29.7662V34.8545L5.87244 37.7572V38.4767L11.4669 34.8545V29.0823L10.3558 29.7662Z" fill="#F4BB87"/>
<path d="M5.87241 38.7545C5.71901 38.7545 5.59464 38.6302 5.59464 38.4768V32.5268C5.59464 32.4303 5.64463 32.3407 5.72684 32.2901L11.3212 28.8457C11.4519 28.7653 11.623 28.8061 11.7034 28.9367C11.7303 28.9805 11.7446 29.0309 11.7446 29.0824V34.8545C11.7447 34.9487 11.697 35.0366 11.6179 35.0879L6.02354 38.7101C5.97852 38.7391 5.92608 38.7546 5.87241 38.7545V38.7545ZM6.15019 32.6818V37.9657L11.189 34.7029V29.5768L6.15019 32.6818Z" fill="#323C6B"/>
<path d="M11.4669 29.0824L5.87241 32.5269L0.278015 29.0824L5.3613 25.4436L5.87241 25.0769L11.4669 29.0824Z" fill="#B1DCC1"/>
<path d="M5.87276 32.8048C5.82138 32.8048 5.77098 32.7906 5.72718 32.7636L0.132865 29.3192C0.00213166 29.239 -0.0388093 29.0679 0.0414415 28.9371C0.0608518 28.9055 0.0864603 28.878 0.116717 28.8564L5.71054 24.8514C5.80735 24.7819 5.93767 24.7819 6.0344 24.8514L11.6288 28.857C11.7537 28.9461 11.7825 29.1196 11.6934 29.2444C11.6718 29.2747 11.6444 29.3003 11.6126 29.3197L6.01833 32.7642C5.97454 32.7909 5.92414 32.8049 5.87276 32.8048V32.8048ZM0.778379 29.0653L5.87113 32.2009L10.9639 29.0653L5.87276 25.4187L0.778379 29.0653Z" fill="#323C6B"/>
<path d="M32.9556 25.707C32.9396 25.7071 32.9236 25.7058 32.9078 25.7031C32.7567 25.6769 32.6555 25.5331 32.6817 25.382L32.7584 24.9376C32.8025 24.4958 32.8241 24.0521 32.8228 23.6081C32.8222 18.1853 29.6154 13.2759 24.6501 11.096C24.5077 11.0389 24.4385 10.8773 24.4956 10.7349C24.5527 10.5925 24.7143 10.5232 24.8567 10.5803C24.862 10.5824 24.8672 10.5847 24.8724 10.5872C30.0404 12.8558 33.3779 17.9658 33.3779 23.6098C33.3793 24.0793 33.3559 24.5485 33.3079 25.0154L33.2285 25.4765C33.2055 25.6093 33.0904 25.7065 32.9556 25.707V25.707Z" fill="#323C6B"/>
<path d="M19.1668 37.8173C16.2649 37.8245 13.4312 36.9374 11.0513 35.2768C10.9273 35.1865 10.9 35.0127 10.9903 34.8887C11.0781 34.7683 11.2452 34.7385 11.369 34.8213C16.0588 38.078 22.279 38.076 26.9667 34.8163C27.0897 34.7246 27.2638 34.75 27.3554 34.873C27.4471 34.996 27.4217 35.17 27.2987 35.2617C27.2943 35.265 27.2897 35.2682 27.285 35.2713C24.9058 36.9358 22.0705 37.825 19.1668 37.8173V37.8173Z" fill="#323C6B"/>
<path d="M5.35912 25.7208C5.22096 25.7208 5.10377 25.6193 5.08411 25.4825L5.01911 25.0264C4.97034 24.556 4.94661 24.0833 4.94799 23.6102C4.94922 17.9624 8.29088 12.8498 13.4635 10.582C13.6021 10.5163 13.7678 10.5754 13.8334 10.7141C13.8991 10.8527 13.8399 11.0184 13.7013 11.084C13.6962 11.0865 13.6909 11.0888 13.6856 11.0909C8.71554 13.2703 5.50478 18.1827 5.50347 23.6097C5.50208 24.0598 5.52435 24.5096 5.5701 24.9575L5.63396 25.4019C5.65574 25.5538 5.55028 25.6946 5.39843 25.7163C5.3844 25.7184 5.37029 25.7193 5.35618 25.7191L5.35912 25.7208Z" fill="#323C6B"/>
<path d="M2.20297 28.8633L4.57241 27.1411C4.69156 27.0545 4.85826 27.0808 4.94479 27.1998C5.03132 27.3188 5.00481 27.4855 4.88566 27.5722L2.51622 29.2944C2.39707 29.381 2.23037 29.3547 2.14384 29.2356C2.05739 29.1166 2.08381 28.95 2.20297 28.8633Z" fill="#EEEFEE"/>
<path d="M5.33368 26.5788L5.44867 26.4952C5.56774 26.4086 5.73444 26.4347 5.82105 26.5536C5.90758 26.6726 5.88124 26.8393 5.76217 26.926L5.64717 27.0096C5.5281 27.0962 5.3614 27.0701 5.27479 26.9512C5.18818 26.8322 5.21452 26.6655 5.33368 26.5788Z" fill="#EEEFEE"/>
</g>
<defs>
<clipPath id="clip0">
<rect width="40" height="40" fill="white"/>
</clipPath>
</defs>
</svg>
