<svg width="40" height="40" viewBox="0 0 40 40" fill="none" xmlns="http://www.w3.org/2000/svg">
<path d="M30.6824 29.785L35.3709 37.9057C35.9691 38.9419 37.2941 39.297 38.3304 38.6987C39.3666 38.1004 39.7217 36.7754 39.1234 35.7392L34.4349 27.6185C34.3038 27.3915 34.0136 27.3137 33.7866 27.4447L30.8561 29.1367C30.6291 29.2676 30.5513 29.558 30.6824 29.785V29.785Z" fill="#528FD8"/>
<path d="M39.1234 35.7392L34.4349 27.6185C34.3038 27.3915 34.0136 27.3137 33.7865 27.4447L32.4482 28.2174C32.683 28.0819 32.9796 28.156 33.1107 28.383L37.7992 36.5037C38.2583 37.299 38.1384 38.274 37.5735 38.9642C37.8328 38.9247 38.0894 38.8379 38.3303 38.6987C39.3666 38.1004 39.7217 36.7754 39.1234 35.7392Z" fill="#0573CE"/>
<path d="M30.9977 25.1823C34.6789 22.8026 35.7341 17.8892 33.3544 14.2079C30.9747 10.5266 26.0613 9.47144 22.38 11.8511C18.6987 14.2308 17.6436 19.1442 20.0233 22.8255C22.403 26.5068 27.3164 27.562 30.9977 25.1823Z" fill="#017297"/>
<path d="M33.5534 14.5543C31.3622 10.759 26.5091 9.45864 22.7137 11.6499C22.3723 11.8471 22.0512 12.0661 21.7509 12.3036C25.4612 10.501 29.9885 11.8487 32.0833 15.4769C34.0773 18.9307 33.1795 23.2602 30.1416 25.6628C30.3126 25.5798 30.4819 25.4905 30.649 25.394C34.4444 23.2028 35.7446 18.3497 33.5534 14.5543V14.5543Z" fill="#025F80"/>
<path d="M30.323 22.0978C32.3119 20.1089 32.3119 16.8843 30.323 14.8954C28.3341 12.9065 25.1094 12.9065 23.1205 14.8954C21.1316 16.8843 21.1316 20.1089 23.1205 22.0978C25.1094 24.0867 28.3341 24.0867 30.323 22.0978Z" fill="#01D0FB"/>
<path d="M3.62954 20.0142C3.62954 19.6905 3.36728 19.4282 3.0436 19.4282C2.71993 19.4282 2.45767 19.6905 2.45767 20.0142C2.48525 20.1855 2.17986 23.1775 4.44071 25.9735C4.64321 26.2239 5.01204 26.2651 5.26477 26.0607C5.51641 25.8572 5.55548 25.4883 5.35196 25.2367C3.37603 22.7931 3.6547 20.1724 3.62954 20.0142Z" fill="black"/>
<path d="M2.45764 12.1107V16.9121C2.45764 17.2358 2.71991 17.4981 3.04358 17.4981C3.36725 17.4981 3.62952 17.2358 3.62952 16.9121V12.1107C3.62952 7.83168 7.11069 4.35059 11.3896 4.35059C15.1326 4.35059 18.3419 7.01754 19.0204 10.692C19.0792 11.0102 19.3844 11.2204 19.7031 11.1618C20.0213 11.103 20.2317 10.7974 20.1729 10.4791C19.3917 6.24895 15.6978 3.17871 11.3897 3.17871C6.46451 3.17863 2.45764 7.18559 2.45764 12.1107V12.1107Z" fill="black"/>
<path d="M11.4625 8.85405C10.5739 8.8296 9.73438 9.15913 9.09789 9.78054C8.46086 10.4024 8.11383 11.2338 8.11641 12.1218V13.6398C8.11742 13.9628 8.38188 14.224 8.70461 14.224H8.70641C9.03008 14.223 9.2893 13.9598 9.28828 13.6362V12.1183C9.28664 11.5501 9.50828 11.0176 9.91656 10.6191C10.3244 10.2209 10.8616 10.0112 11.4313 10.0255C12.553 10.055 13.4684 11.0142 13.4717 12.1619V18.7611C13.4734 19.2834 13.6927 19.8 14.0729 20.1779L16.4945 22.5944C16.7229 22.8223 17.0938 22.8234 17.3232 22.5936C17.5518 22.3645 17.5514 21.9935 17.3223 21.7649L14.8998 19.3475C14.7377 19.1862 14.6441 18.9712 14.6436 18.7593V12.1601C14.6384 10.3832 13.2112 8.90007 11.4625 8.85405V8.85405Z" fill="black"/>
<path d="M8.13921 20.4153C8.13335 21.3156 8.47405 22.1534 9.09843 22.774L13.1426 26.7986C13.3718 27.0268 13.7428 27.026 13.9712 26.7966C14.1995 26.5672 14.1986 26.1962 13.9692 25.9679L9.92491 21.9431C9.52538 21.5459 9.30741 21.006 9.31116 20.4251C9.31124 20.417 9.29999 16.7383 9.29999 16.7383C9.29898 16.4152 9.03687 16.1541 8.71405 16.1541H8.71233C8.38866 16.1551 8.12718 16.4182 8.12812 16.7418C8.12804 16.7417 8.13921 20.3857 8.13921 20.4153V20.4153Z" fill="black"/>
<path d="M12.57 20.8872C12.1705 20.49 11.9525 19.9502 11.9563 19.3632C11.9563 19.3605 11.9452 15.6824 11.9452 15.6824C11.9441 15.3593 11.682 15.0981 11.3593 15.0981H11.3575C11.0338 15.0992 10.7779 15.3623 10.7789 15.6859V19.3595C10.7731 20.2598 11.1193 21.0975 11.7436 21.7181L13.1425 23.1104C13.372 23.3386 13.7428 23.3377 13.9713 23.1084C14.1995 22.879 14.1986 22.508 13.9693 22.2797L12.57 20.8872Z" fill="black"/>
<path d="M39.6318 35.4472L34.9432 27.3262C34.8015 27.0808 34.5729 26.9054 34.2992 26.8321C34.0256 26.7587 33.7398 26.7964 33.4945 26.938L32.5366 27.4911L31.44 25.5916C35.1222 23.1168 36.3125 18.1605 34.0617 14.2618C33.4341 13.1747 32.5983 12.2608 31.5777 11.5456C31.3124 11.3599 30.9471 11.4241 30.7615 11.6891C30.5757 11.9542 30.64 12.3196 30.905 12.5053C31.7846 13.1217 32.5052 13.9098 33.0467 14.8478C35.073 18.3575 33.8663 22.8613 30.3569 24.8875C26.8474 26.9136 22.3434 25.7069 20.3172 22.1973C18.291 18.6877 19.4977 14.1841 23.0073 12.1578C24.7231 11.1673 26.7201 10.911 28.6307 11.4362C28.9426 11.5225 29.2652 11.3386 29.351 11.0266C29.4369 10.7145 29.2534 10.392 28.9414 10.3062C26.7262 9.6971 24.4107 9.99436 22.4213 11.1429C19.7398 12.6911 18.2181 15.4866 18.1641 18.3777L17.9061 18.1197C17.6388 17.8523 17.4855 17.4822 17.4855 17.1042V12.1948C17.4855 8.83811 14.7933 6.06624 11.4841 6.01577C9.83781 5.99249 8.28765 6.6135 7.11414 7.76928C5.94023 8.92546 5.29382 10.4674 5.29382 12.1112V20.5192C5.29382 22.2889 5.98265 23.9523 7.23343 25.2032L8.74679 26.7165C8.97578 26.9454 9.34664 26.9453 9.57554 26.7165C9.80437 26.4876 9.80437 26.1167 9.57554 25.8878L8.06218 24.3745C7.03273 23.345 6.46578 21.9758 6.46578 20.5191V12.1112C6.46578 10.7838 6.98812 9.53842 7.93664 8.60421C8.88461 7.67053 10.1373 7.16632 11.4663 7.18757C14.1391 7.22827 16.3136 9.47452 16.3136 12.1948V17.1042C16.3136 17.7906 16.592 18.4628 17.0775 18.9483L18.3261 20.1969C18.487 21.0033 18.7684 21.7981 19.1763 22.5563C18.2036 25.9423 15.1041 28.2881 11.558 28.2881C11.2344 28.2881 10.9721 28.5504 10.9721 28.874C10.9721 29.1977 11.2344 29.46 11.558 29.46C15.3008 29.46 18.6105 27.1829 19.987 23.7941C22.4333 26.9049 26.7906 27.958 30.4252 26.1779L31.5216 28.077L30.5639 28.6299C30.3184 28.7715 30.1429 29.0002 30.0696 29.2739C29.9963 29.5476 30.0339 29.8333 30.1756 30.0787L32.5156 34.1316C32.6774 34.4119 33.0359 34.5079 33.3159 34.3461C33.5962 34.1843 33.6923 33.8259 33.5304 33.5457L31.2461 29.5892L33.9838 28.0085L38.6168 36.033C39.0525 36.7877 38.7931 37.7564 38.0383 38.1922C37.2836 38.6279 36.3149 38.3683 35.8791 37.6137L34.8974 35.9135C34.7356 35.6332 34.3772 35.5373 34.097 35.699C33.8168 35.8608 33.7207 36.2192 33.8826 36.4994L34.8642 38.1996C35.6195 39.5076 37.3037 39.9694 38.6243 39.2071C39.9387 38.4483 40.3906 36.7616 39.6318 35.4472V35.4472Z" fill="black"/>
<path d="M23.8873 13.5775C22.5733 14.336 21.6336 15.5608 21.2409 17.0263C20.8482 18.4917 21.0498 20.0224 21.8084 21.3362C23.3768 24.053 26.8448 24.9867 29.567 23.4152C32.2793 21.8492 33.2119 18.3687 31.6459 15.6564C30.08 12.9442 26.5996 12.0115 23.8873 13.5775V13.5775ZM30.631 16.2423C31.8739 18.3949 31.1337 21.1574 28.981 22.4002C26.8131 23.6519 24.0569 22.887 22.8232 20.7502C22.2212 19.7074 22.0612 18.4926 22.3728 17.3295C22.6844 16.1665 23.4303 15.1944 24.4731 14.5923C25.1813 14.1834 25.9551 13.9893 26.7195 13.9893C28.2786 13.9894 29.7971 14.798 30.631 16.2423V16.2423Z" fill="black"/>
<path d="M0.585938 5.54908C0.909609 5.54908 1.17188 5.28682 1.17188 4.96314V1.71814C1.17188 1.65096 1.22656 1.59619 1.29383 1.59619H4.53883C4.8625 1.59619 5.12477 1.33393 5.12477 1.01025C5.12477 0.686582 4.8625 0.424316 4.53883 0.424316H1.29383C0.580391 0.424316 0 1.00471 0 1.71814V4.96314C0 5.28682 0.262266 5.54908 0.585938 5.54908V5.54908Z" fill="black"/>
<path d="M18.1797 1.59619H21.4247C21.4919 1.59619 21.5467 1.65088 21.5467 1.71814V4.96314C21.5467 5.28682 21.809 5.54908 22.1326 5.54908C22.4562 5.54908 22.7185 5.28682 22.7185 4.96314V1.71814C22.7185 1.00471 22.1381 0.424316 21.4247 0.424316H18.1797C17.856 0.424316 17.5938 0.686582 17.5938 1.01025C17.5938 1.33393 17.856 1.59619 18.1797 1.59619Z" fill="black"/>
<path d="M4.53883 32.01H1.29383C1.22664 32.01 1.17188 31.9553 1.17188 31.8881V28.6431C1.17188 28.3194 0.909609 28.0571 0.585938 28.0571C0.262266 28.0571 0 28.3194 0 28.6431V31.8881C0 32.6015 0.580391 33.1819 1.29383 33.1819H4.53883C4.8625 33.1819 5.12477 32.9196 5.12477 32.596C5.12477 32.2724 4.8625 32.01 4.53883 32.01V32.01Z" fill="black"/>
<path d="M22.1326 28.0571C21.8089 28.0571 21.5467 28.3194 21.5467 28.6431V31.8881C21.5467 31.9553 21.492 32.01 21.4247 32.01H18.1797C17.856 32.01 17.5938 32.2723 17.5938 32.596C17.5938 32.9196 17.856 33.1819 18.1797 33.1819H21.4247C22.1381 33.1819 22.7185 32.6015 22.7185 31.8881V28.6431C22.7185 28.3195 22.4562 28.0571 22.1326 28.0571Z" fill="black"/>
</svg>
