<svg width="40" height="40" viewBox="0 0 40 40" fill="none" xmlns="http://www.w3.org/2000/svg">
<g clip-path="url(#clip0)">
<path d="M30.3162 1.17188V38.8281C30.3162 39.475 29.7912 40 29.1443 40H2.07397C1.4271 40 0.9021 39.475 0.9021 38.8281V9.83516L10.738 0H29.1443C29.7912 0 30.3162 0.525 30.3162 1.17188V1.17188Z" fill="#F0F7FF"/>
<path d="M10.738 0V8.66328C10.738 9.31016 10.213 9.83516 9.56616 9.83516H0.9021V8.66406C0.9021 8.36641 1.01538 8.06562 1.26616 7.81484L8.73726 0.342969C8.94976 0.130469 9.24741 0 9.56616 0H10.738V0Z" fill="#DFE7F4"/>
<path d="M30.3162 1.17188V38.8281C30.3162 39.475 29.7912 40 29.1443 40H15.6091V0H29.1443C29.7912 0 30.3162 0.525 30.3162 1.17188Z" fill="#DFE7F4"/>
<path d="M13.2654 17.355H5.16608C4.51889 17.355 3.9942 16.8303 3.9942 16.1831C3.9942 15.5359 4.51889 15.0112 5.16608 15.0112H13.2655C13.9126 15.0112 14.4373 15.5359 14.4373 16.1831C14.4373 16.8303 13.9126 17.355 13.2654 17.355Z" fill="#4793FF"/>
<path d="M13.2654 22.0425H5.16608C4.51889 22.0425 3.9942 21.5178 3.9942 20.8706C3.9942 20.2234 4.51889 19.6987 5.16608 19.6987H13.2655C13.9126 19.6987 14.4373 20.2234 14.4373 20.8706C14.4373 21.5178 13.9126 22.0425 13.2654 22.0425Z" fill="#4793FF"/>
<path d="M13.2654 26.73H5.16608C4.51889 26.73 3.9942 26.2053 3.9942 25.5581C3.9942 24.9109 4.51889 24.3862 5.16608 24.3862H13.2655C13.9126 24.3862 14.4373 24.9109 14.4373 25.5581C14.4373 26.2053 13.9126 26.73 13.2654 26.73Z" fill="#4793FF"/>
<path d="M13.2654 31.4175H5.16608C4.51889 31.4175 3.9942 30.8928 3.9942 30.2456C3.9942 29.5984 4.51889 29.0737 5.16608 29.0737H13.2655C13.9126 29.0737 14.4373 29.5984 14.4373 30.2456C14.4373 30.8928 13.9126 31.4175 13.2654 31.4175Z" fill="#4793FF"/>
<path d="M35.7855 19.964C35.1383 19.964 34.6136 19.4393 34.6136 18.7921V13.7839C34.6136 10.7499 32.1452 8.28149 29.1112 8.28149C26.0771 8.28149 23.6088 10.7499 23.6088 13.7839V18.7921C23.6088 19.4393 23.0841 19.964 22.4369 19.964C21.7897 19.964 21.265 19.4393 21.265 18.7921V13.7839C21.265 9.45751 24.7848 5.93774 29.1112 5.93774C33.4376 5.93774 36.9574 9.45751 36.9574 13.7839V18.7921C36.9574 19.4393 36.4327 19.964 35.7855 19.964Z" fill="#453D81"/>
<path d="M39.0979 18.792V32.1006C39.0979 32.7482 38.5729 33.2725 37.926 33.2725H20.2963C19.6495 33.2725 19.1245 32.7482 19.1245 32.1006V18.792C19.1245 18.1451 19.6495 17.6201 20.2963 17.6201H37.926C38.5729 17.6201 39.0979 18.1451 39.0979 18.792Z" fill="#FABE2C"/>
<path d="M29.1111 26.6187C29.7584 26.6187 30.283 26.094 30.283 25.4468C30.283 24.7996 29.7584 24.2749 29.1111 24.2749C28.4639 24.2749 27.9393 24.7996 27.9393 25.4468C27.9393 26.094 28.4639 26.6187 29.1111 26.6187Z" fill="#453D81"/>
<path d="M24.4236 26.6187C25.0709 26.6187 25.5955 26.094 25.5955 25.4468C25.5955 24.7996 25.0709 24.2749 24.4236 24.2749C23.7764 24.2749 23.2518 24.7996 23.2518 25.4468C23.2518 26.094 23.7764 26.6187 24.4236 26.6187Z" fill="#453D81"/>
<path d="M33.7986 26.6187C34.4459 26.6187 34.9705 26.094 34.9705 25.4468C34.9705 24.7996 34.4459 24.2749 33.7986 24.2749C33.1514 24.2749 32.6268 24.7996 32.6268 25.4468C32.6268 26.094 33.1514 26.6187 33.7986 26.6187Z" fill="#453D81"/>
</g>
<defs>
<clipPath id="clip0">
<rect width="40" height="40" fill="white"/>
</clipPath>
</defs>
</svg>
