<svg width="40" height="40" viewBox="0 0 40 40" fill="none" xmlns="http://www.w3.org/2000/svg">
<g clip-path="url(#clip0)">
<path d="M35.3334 2.6665V20.6665L33.2134 12.4265C33.0434 11.7142 32.3363 11.2674 31.62 11.4198C30.9041 11.5803 30.4536 12.2904 30.6134 13.0065L30.32 11.7065C30.2148 11.2558 29.8834 10.8919 29.4444 10.7452C29.0055 10.5984 28.5219 10.6897 28.1667 10.9865C27.7791 11.3512 27.6185 11.8967 27.7467 12.4132L28.0067 13.5865C27.9015 13.1321 27.5655 12.7662 27.1216 12.6228C26.6778 12.4794 26.1912 12.5795 25.84 12.8865C25.4635 13.2577 25.3114 13.8003 25.44 14.3132L25.7 15.4732C25.5213 14.7666 24.8224 14.3221 24.1067 14.4598C23.7608 14.5363 23.4595 14.7473 23.2694 15.0462C23.0793 15.3452 23.0159 15.7075 23.0934 16.0532L25.64 25.9998H14.36L16.9067 16.0532C16.9841 15.7075 16.9208 15.3452 16.7307 15.0462C16.5406 14.7473 16.2393 14.5363 15.8934 14.4598C15.1776 14.3221 14.4787 14.7666 14.3 15.4732L14.56 14.3132C14.6887 13.8003 14.5365 13.2577 14.16 12.8865C13.8088 12.5795 13.3223 12.4794 12.8784 12.6228C12.4346 12.7662 12.0986 13.1321 11.9934 13.5865L12.2534 12.4132C12.3815 11.8967 12.221 11.3512 11.8334 10.9865C11.4782 10.6897 10.9946 10.5984 10.5556 10.7452C10.1167 10.8919 9.78526 11.2558 9.68002 11.7065L9.38669 13.0065C9.54648 12.2904 9.09593 11.5803 8.38002 11.4198C7.66373 11.2674 6.95663 11.7142 6.78669 12.4265L4.66669 20.6665V2.6665C4.66669 1.56193 5.56212 0.666504 6.66669 0.666504H33.3334C34.4379 0.666504 35.3334 1.56193 35.3334 2.6665Z" fill="#02A9F4"/>
<path d="M23.3873 14.8961C23.0681 14.5338 22.5807 14.3679 22.1067 14.4601C21.7607 14.5366 21.4595 14.7476 21.2694 15.0465C21.0792 15.3454 21.0159 15.7078 21.0933 16.0535L23.64 26.0001H25.64L23.0933 16.0535C23.0035 15.6429 23.1124 15.214 23.3873 14.8961V14.8961Z" fill="#0377BC"/>
<path d="M33.3334 0.666504H31.3334C32.4379 0.666504 33.3334 1.56193 33.3334 2.6665V12.8932L35.3334 20.6665V2.6665C35.3334 1.56193 34.4379 0.666504 33.3334 0.666504Z" fill="#0377BC"/>
<path d="M35.3334 20.6667V24C35.3334 25.1046 34.4379 26 33.3333 26H25.64L23.0933 16.0534C23.0159 15.7077 23.0792 15.3453 23.2694 15.0464C23.4595 14.7475 23.7608 14.5365 24.1067 14.46C24.8224 14.3223 25.5213 14.7668 25.7 15.4734L25.44 14.3134C25.3114 13.8005 25.4635 13.2579 25.84 12.8867C26.1912 12.5797 26.6778 12.4796 27.1216 12.623C27.5655 12.7664 27.9015 13.1323 28.0067 13.5867L27.7467 12.4134C27.6185 11.8968 27.7791 11.3514 28.1667 10.9867C28.5218 10.6899 29.0055 10.5986 29.4444 10.7453C29.8833 10.8921 30.2148 11.256 30.32 11.7067L30.6133 13.0067C30.4536 12.2906 30.9041 11.5805 31.62 11.42C32.3363 11.2676 33.0434 11.7144 33.2133 12.4267L35.3334 20.6667Z" fill="#DFC49C"/>
<path d="M38 39.3334H31.6934C31.0617 39.3342 30.5162 38.8917 30.3867 38.2734L29.24 32.8334C29.0614 32.0022 28.5665 31.273 27.86 30.8001L27.8467 30.7868C27.0862 30.281 26.5399 29.5115 26.3134 28.6268L25.64 26.0001H33.3334C34.4379 26.0001 35.3334 25.1047 35.3334 24.0001V19.3334C35.3463 18.3217 35.5663 17.3234 35.98 16.4001C36.2224 15.6411 37.0046 15.1932 37.7818 15.3684C38.5591 15.5437 39.0735 16.2839 38.9667 17.0734C38.8734 17.8801 38.1534 19.1334 38.1534 21.1801C38.1534 24.7734 38.6667 23.4401 38.6667 26.0001C38.6833 27.4246 38.4717 28.8425 38.04 30.2001C37.9067 30.6016 37.9138 31.0365 38.06 31.4334C38.668 33.5326 39.0918 35.6807 39.3267 37.8534C39.3684 38.2305 39.2475 38.6076 38.9943 38.8901C38.741 39.1726 38.3794 39.3338 38 39.3334V39.3334Z" fill="#FFE0B2"/>
<path d="M39.3267 37.8532C39.0918 35.6805 38.668 33.5323 38.06 31.4332C37.9138 31.0363 37.9067 30.6014 38.04 30.1999C38.4717 28.8423 38.6832 27.4244 38.6667 25.9999C38.6667 23.4399 38.1533 24.7732 38.1533 21.1799C38.1533 19.1332 38.8733 17.8799 38.9667 17.0732C39.0525 16.4411 38.738 15.8219 38.177 15.5183C37.6159 15.2147 36.9255 15.2902 36.4433 15.7079C36.8383 16.0446 37.0354 16.5588 36.9667 17.0732C36.8733 17.8799 36.1533 19.1332 36.1533 21.1799C36.1533 24.7732 36.6667 23.4399 36.6667 25.9999C36.6833 27.4244 36.4717 28.8423 36.04 30.1999C35.9067 30.6014 35.9138 31.0363 36.06 31.4332C36.668 33.5323 37.0918 35.6805 37.3267 37.8532C37.3684 38.2303 37.2475 38.6074 36.9943 38.8899C36.741 39.1724 36.3794 39.3336 36 39.3332H38C38.3794 39.3336 38.741 39.1724 38.9943 38.8899C39.2475 38.6074 39.3684 38.2303 39.3267 37.8532Z" fill="#DFC49C"/>
<path d="M16.9067 16.0534L14.36 26H6.66669C5.56212 26 4.66669 25.1046 4.66669 24V20.6667L6.78669 12.4267C6.95663 11.7144 7.66373 11.2676 8.38002 11.42C9.09593 11.5805 9.54648 12.2906 9.38669 13.0067L9.68002 11.7067C9.78526 11.256 10.1167 10.8921 10.5556 10.7453C10.9946 10.5986 11.4782 10.6899 11.8334 10.9867C12.221 11.3514 12.3815 11.8968 12.2534 12.4134L11.9934 13.5867C12.0986 13.1323 12.4346 12.7664 12.8784 12.623C13.3223 12.4796 13.8088 12.5797 14.16 12.8867C14.5365 13.2579 14.6886 13.8005 14.56 14.3134L14.3 15.4734C14.4787 14.7668 15.1776 14.3223 15.8934 14.46C16.2393 14.5365 16.5405 14.7475 16.7307 15.0464C16.9208 15.3453 16.9841 15.7077 16.9067 16.0534Z" fill="#DFC49C"/>
<path d="M14.36 26.0001L13.6867 28.6268C13.4601 29.5115 12.9139 30.281 12.1534 30.7868L12.14 30.8001C11.4335 31.273 10.9387 32.0022 10.76 32.8334L9.61338 38.2734C9.48389 38.8917 8.93837 39.3342 8.30671 39.3334H2.00005C1.62064 39.3338 1.25903 39.1726 1.00579 38.8901C0.752541 38.6076 0.631646 38.2305 0.673381 37.8534C0.908228 35.6807 1.33206 33.5326 1.94005 31.4334C2.08628 31.0365 2.09333 30.6016 1.96005 30.2001C1.52836 28.8425 1.3168 27.4246 1.33338 26.0001C1.33338 23.4401 1.84671 24.7734 1.84671 21.1801C1.84671 19.1334 1.12671 17.8801 1.03338 17.0734C0.926599 16.2839 1.44099 15.5437 2.21823 15.3684C2.99547 15.1932 3.77771 15.6411 4.02005 16.4001C4.43373 17.3234 4.65381 18.3217 4.66671 19.3334V24.0001C4.66671 25.1047 5.56214 26.0001 6.66671 26.0001H14.36Z" fill="#FFE0B2"/>
<path d="M7.33335 5.33332C7.06376 5.33327 6.82073 5.17084 6.71757 4.92176C6.6144 4.67268 6.67141 4.38599 6.86202 4.19532L8.19536 2.86199C8.36274 2.68869 8.61061 2.61918 8.84369 2.68019C9.07678 2.7412 9.25881 2.92323 9.31982 3.15632C9.38083 3.3894 9.31133 3.63727 9.13802 3.80466L7.80469 5.13799C7.67969 5.26302 7.51015 5.33328 7.33335 5.33332V5.33332Z" fill="#F5F5F5"/>
<path d="M7.33335 8.66666C7.06376 8.6666 6.82073 8.50417 6.71757 8.25509C6.6144 8.00601 6.67141 7.71932 6.86202 7.52866L11.5287 2.86199C11.6961 2.68869 11.9439 2.61918 12.177 2.68019C12.4101 2.7412 12.5921 2.92323 12.6531 3.15632C12.7142 3.3894 12.6447 3.63727 12.4713 3.80466L7.80468 8.47132C7.67969 8.59636 7.51015 8.66662 7.33335 8.66666Z" fill="#F5F5F5"/>
<path d="M2.00003 40H8.30737C9.25221 39.9979 10.0679 39.3377 10.2667 38.414L11.418 32.9693C11.5585 32.3019 11.9567 31.7169 12.526 31.3413C13.4226 30.7439 14.0664 29.8358 14.3334 28.792L14.8767 26.6667H25.1234L25.6674 28.792C25.9374 29.8416 26.5874 30.7536 27.4914 31.3513C28.0539 31.7264 28.4465 32.3075 28.5847 32.9693L29.7334 38.4133C29.9319 39.337 30.7473 39.9976 31.692 40H38C38.5687 40 39.1104 39.758 39.4898 39.3344C39.8692 38.9109 40.0504 38.3459 39.988 37.7807C39.7472 35.5551 39.3118 33.3549 38.6867 31.2053C38.5932 30.9475 38.5892 30.6657 38.6754 30.4053C39.1257 28.9808 39.3478 27.494 39.3334 26C39.3726 25.2882 39.2871 24.575 39.0807 23.8927C38.8427 23.0089 38.7548 22.0915 38.8207 21.1787C38.8346 20.1773 39.0134 19.1851 39.3501 18.242C39.4753 17.891 39.5681 17.5293 39.6274 17.1613C39.7073 16.5812 39.5504 15.9932 39.192 15.53C38.823 15.0472 38.2706 14.7387 37.666 14.6774C37.0614 14.6162 36.4584 14.8077 36 15.2067V2.66667C36 1.19391 34.8061 0 33.3334 0H6.6667C5.19394 0 4.00003 1.19391 4.00003 2.66667V15.2067C3.54176 14.8086 2.93938 14.6176 2.33546 14.6788C1.73154 14.74 1.17976 15.0481 0.810696 15.53C0.454241 15.9893 0.296938 16.5724 0.374029 17.1487C0.432791 17.521 0.526082 17.887 0.652696 18.242C0.989337 19.1851 1.16818 20.1773 1.18203 21.1787C1.24798 22.0915 1.16009 23.0089 0.92203 23.8927C0.714721 24.5749 0.628309 25.288 0.666696 26C0.651263 27.495 0.872672 28.983 1.3227 30.4087C1.40885 30.669 1.40486 30.9508 1.31136 31.2087C0.687449 33.357 0.2529 35.5558 0.0126958 37.78C-0.049855 38.3452 0.13114 38.9103 0.510416 39.334C0.889692 39.7576 1.43139 39.9999 2.00003 40V40ZM36.4767 16.972C36.636 16.56 36.8034 15.9113 37.5494 16.006C37.7813 16.0356 37.9917 16.1571 38.1332 16.3432C38.2747 16.5294 38.3356 16.7646 38.302 16.996C38.2496 17.283 38.174 17.5652 38.076 17.84C37.6975 18.913 37.4977 20.0409 37.4847 21.1787C37.4137 22.2223 37.5208 23.2703 37.8014 24.278C37.9694 24.8356 38.0367 25.4188 38 26C38.0152 27.3539 37.8161 28.7017 37.4101 29.9933C37.2329 30.5363 37.242 31.1228 37.436 31.66C38.0256 33.7095 38.4367 35.8063 38.6647 37.9267C38.6868 38.1135 38.6273 38.3008 38.5014 38.4407C38.3749 38.5851 38.192 38.6676 38 38.6667H31.692C31.3774 38.6662 31.1058 38.4459 31.0407 38.138L29.8894 32.6933C29.6773 31.6846 29.076 30.8002 28.216 30.232C27.5928 29.8172 27.1449 29.1865 26.9587 28.4613L26.4994 26.6667H33.3334C34.8061 26.6667 36 25.4728 36 24V19.2667C36.0056 18.4778 36.1677 17.6978 36.4767 16.972V16.972ZM25.046 15.6133C27.4827 26.6387 26.276 21.178 26.6247 22.7567C26.7041 23.1164 27.06 23.3437 27.4197 23.2643C27.7794 23.185 28.0067 22.8291 27.9274 22.4693L26.0907 14.1673C26.015 13.8873 26.0908 13.5882 26.2907 13.378C26.466 13.2315 26.7044 13.1858 26.9214 13.2571C27.1384 13.3285 27.3032 13.5067 27.3574 13.7287C29.416 23.0187 26.9254 11.7827 29.0454 21.3473C29.1251 21.7071 29.4813 21.934 29.841 21.8543C30.2008 21.7746 30.4278 21.4184 30.348 21.0587C30.1467 20.16 31.0667 24.3133 28.4 12.2713C28.3251 11.9923 28.4038 11.6944 28.6067 11.4887C28.7848 11.3468 29.023 11.3056 29.2383 11.3795C29.4537 11.4534 29.6165 11.632 29.67 11.8533C31.9407 22.0893 31.4334 19.8027 31.5094 20.144C31.5608 20.3766 31.7324 20.564 31.9596 20.6358C32.1867 20.7075 32.4349 20.6526 32.6106 20.4918C32.7863 20.3309 32.8628 20.0886 32.8114 19.856C32.686 19.2887 31.1687 12.4367 31.2647 12.8607C31.2264 12.6891 31.2578 12.5094 31.3521 12.3611C31.4464 12.2128 31.5958 12.1081 31.7674 12.07C32.1317 11.9982 32.4868 12.2302 32.5674 12.5927L34.6667 20.7593V24C34.6667 24.7364 34.0698 25.3333 33.3334 25.3333H26.158L23.7454 15.908C23.7066 15.7352 23.7382 15.5542 23.8331 15.4047C23.9281 15.2553 24.0785 15.1497 24.2514 15.1113C24.605 15.0543 24.9457 15.2695 25.046 15.6133V15.6133ZM6.6667 1.33333H33.3334C34.0698 1.33333 34.6667 1.93029 34.6667 2.66667V15.4073L33.8667 12.2833C33.7489 11.7683 33.432 11.3209 32.9854 11.0387C32.5409 10.751 31.9996 10.6535 31.4827 10.768C31.234 10.8209 30.998 10.9219 30.788 11.0653C30.5363 10.6063 30.1187 10.2607 29.6207 10.0993C28.9646 9.8801 28.2413 10.0292 27.7254 10.49C27.3202 10.8569 27.0769 11.3694 27.0487 11.9153C26.4532 11.8056 25.8408 11.9824 25.3954 12.3927C25.0037 12.7589 24.7691 13.2626 24.7407 13.798C24.4845 13.7485 24.2207 13.7523 23.966 13.8093C23.4441 13.9251 22.9902 14.2451 22.7058 14.6977C22.4213 15.1504 22.3299 15.6982 22.452 16.2187L24.782 25.3333H15.218L17.5567 16.2C17.6727 15.6815 17.5776 15.1382 17.2924 14.69C17.0072 14.2417 16.5554 13.9254 16.0367 13.8107C15.7821 13.755 15.5188 13.7513 15.2627 13.8C15.2343 13.2646 14.9997 12.7609 14.608 12.3947C14.1628 11.9841 13.5502 11.8073 12.9547 11.9173C12.9265 11.3711 12.683 10.8583 12.2774 10.4913C11.7614 10.031 11.0385 9.88218 10.3827 10.1013C9.8847 10.2627 9.46699 10.608 9.2147 11.0667C9.00736 10.9243 8.77404 10.8242 8.52803 10.772C7.46007 10.5397 6.40159 11.201 6.14203 12.2627L5.33337 15.4047V2.66667C5.33337 1.93029 5.93032 1.33333 6.6667 1.33333V1.33333ZM5.33337 20.7593L7.4387 12.5693C7.53055 12.217 7.88204 11.9982 8.2387 12.0713C8.59267 12.1537 8.81406 12.506 8.7347 12.8607C8.72003 12.9273 7.20137 19.7887 7.18803 19.856C7.13659 20.0886 7.21313 20.3309 7.38883 20.4918C7.56452 20.6526 7.81268 20.7075 8.03983 20.6358C8.26697 20.564 8.43859 20.3766 8.49003 20.144C8.5667 19.8007 8.0567 22.0967 10.3307 11.848C10.3859 11.6283 10.5489 11.4518 10.7635 11.3791C10.978 11.3065 11.2147 11.3477 11.392 11.4887C11.5956 11.6943 11.6745 11.9926 11.5994 12.272C8.88937 24.5013 9.82403 20.2833 9.62203 21.196C9.54232 21.5555 9.76916 21.9116 10.1287 21.9913C10.4882 22.071 10.8443 21.8442 10.924 21.4847C11.0994 20.6913 12.2127 15.668 12.6427 13.7287C12.6968 13.5067 12.8617 13.3285 13.0787 13.2571C13.2957 13.1858 13.5341 13.2315 13.7094 13.378C13.9092 13.5879 13.985 13.8869 13.9094 14.1667L12.0867 22.4053C12.0353 22.6379 12.1118 22.8803 12.2875 23.0411C12.4632 23.202 12.7114 23.2569 12.9385 23.1851C13.1656 23.1134 13.3373 22.9259 13.3887 22.6933C14.4507 17.888 12.628 26.136 14.954 15.614C15.0533 15.2696 15.3942 15.0535 15.748 15.1107C16.1013 15.188 16.3284 15.5329 16.26 15.888L13.842 25.3333H6.6667C5.93032 25.3333 5.33337 24.7364 5.33337 24V20.7593ZM2.5667 31.6667C2.76075 31.1295 2.7699 30.5429 2.5927 30C2.18504 28.7064 1.985 27.3563 2.00003 26C1.96384 25.4187 2.03156 24.8356 2.20003 24.278C2.48063 23.2703 2.58772 22.2223 2.5167 21.1787C2.50373 20.0409 2.30396 18.913 1.92536 17.84C1.8259 17.5613 1.74986 17.2747 1.69803 16.9833C1.66658 16.7554 1.72835 16.5245 1.86936 16.3427C2.06658 16.0848 2.39093 15.9582 2.71066 16.0143C3.03039 16.0704 3.29231 16.2998 3.39003 16.6093C3.76751 17.4459 3.97486 18.3492 4.00003 19.2667V24C4.00003 25.4728 5.19394 26.6667 6.6667 26.6667H13.5007L13.0414 28.4613C12.8521 29.1932 12.3975 29.8285 11.766 30.244C10.9144 30.8118 10.3199 31.6914 10.1107 32.6933L8.95937 38.138C8.89423 38.4459 8.6227 38.6662 8.30803 38.6667H2.00003C1.80928 38.6679 1.62729 38.5867 1.5007 38.444C1.37477 38.3042 1.31525 38.1169 1.33736 37.93C1.56583 35.8107 1.97714 33.7151 2.5667 31.6667Z" fill="black"/>
</g>
<defs>
<clipPath id="clip0">
<rect width="40" height="40" fill="white"/>
</clipPath>
</defs>
</svg>
