<svg width="40" height="40" viewBox="0 0 40 40" fill="none" xmlns="http://www.w3.org/2000/svg">
<path d="M38.6206 24.1028H1.37939C0.618591 24.1052 0.00213623 24.7214 0 25.4822V32.3788C0.00213623 33.1396 0.618591 33.7558 1.37939 33.7579H38.6206C39.3814 33.7558 39.9979 33.1396 40 32.3788V25.4822C39.9979 24.7214 39.3814 24.1052 38.6206 24.1028V24.1028ZM4.13788 28.241C4.51874 28.241 4.82758 28.5495 4.82758 28.9304C4.82758 29.3115 4.51874 29.6201 4.13788 29.6201C3.75702 29.6201 3.44818 29.3115 3.44818 28.9304C3.4494 28.5501 3.75763 28.2419 4.13788 28.241Z" fill="#F3D55B"/>
<path d="M6.89667 24.1028V26.1719C6.89667 26.5527 6.58783 26.8616 6.20697 26.8616C5.82611 26.8616 5.51727 26.5527 5.51727 26.1719V24.1028H6.89667Z" fill="#B19046"/>
<path d="M9.65515 24.1028V26.8616C9.65515 27.2424 9.34631 27.5513 8.96545 27.5513C8.58459 27.5513 8.27576 27.2424 8.27576 26.8616V24.1028H9.65515Z" fill="#B19046"/>
<path d="M12.4139 24.1028V26.1719C12.4139 26.5527 12.1051 26.8616 11.7242 26.8616C11.3434 26.8616 11.0345 26.5527 11.0345 26.1719V24.1028H12.4139Z" fill="#B19046"/>
<path d="M15.1724 24.1028V26.8616C15.1724 27.2424 14.8636 27.5513 14.4827 27.5513C14.1019 27.5513 13.793 27.2424 13.793 26.8616V24.1028H15.1724Z" fill="#B19046"/>
<path d="M17.9309 24.1028V26.1719C17.9309 26.5527 17.6224 26.8616 17.2415 26.8616C16.8604 26.8616 16.5518 26.5527 16.5518 26.1719V24.1028H17.9309Z" fill="#B19046"/>
<path d="M20.6897 24.1028V26.8616C20.6897 27.2424 20.3809 27.5513 20 27.5513C19.6191 27.5513 19.3103 27.2424 19.3103 26.8616V24.1028H20.6897Z" fill="#B19046"/>
<path d="M23.4482 24.1028V26.1719C23.4482 26.5527 23.1396 26.8616 22.7585 26.8616C22.3776 26.8616 22.0691 26.5527 22.0691 26.1719V24.1028H23.4482Z" fill="#B19046"/>
<path d="M26.207 24.1028V26.8616C26.207 27.2424 25.8981 27.5513 25.5173 27.5513C25.1364 27.5513 24.8276 27.2424 24.8276 26.8616V24.1028H26.207Z" fill="#B19046"/>
<path d="M28.9655 24.1028V26.1719C28.9655 26.5527 28.6566 26.8616 28.2758 26.8616C27.8949 26.8616 27.5861 26.5527 27.5861 26.1719V24.1028H28.9655Z" fill="#B19046"/>
<path d="M31.7242 24.1028V26.8616C31.7242 27.2424 31.4154 27.5513 31.0345 27.5513C30.6537 27.5513 30.3448 27.2424 30.3448 26.8616V24.1028H31.7242Z" fill="#B19046"/>
<path d="M34.4827 24.1028V26.1719C34.4827 26.5527 34.1739 26.8616 33.793 26.8616C33.4122 26.8616 33.1033 26.5527 33.1033 26.1719V24.1028H34.4827Z" fill="#B19046"/>
<path d="M37.9309 24.1028V26.8616C37.9309 27.2424 37.6224 27.5513 37.2415 27.5513C36.8604 27.5513 36.5518 27.2424 36.5518 26.8616V24.1028H37.9309Z" fill="#B19046"/>
<path d="M4.13788 26.8616C2.9953 26.8616 2.06909 27.7878 2.06909 28.9304C2.06909 30.0732 2.9953 30.9995 4.13788 30.9995C5.28046 30.9995 6.20697 30.0732 6.20697 28.9304C6.20361 27.7893 5.27924 26.8649 4.13788 26.8616ZM4.13788 29.6201C3.75702 29.6201 3.44818 29.3115 3.44818 28.9304C3.44818 28.5495 3.75702 28.241 4.13788 28.241C4.51874 28.241 4.82758 28.5495 4.82758 28.9304C4.82635 29.3109 4.51843 29.6191 4.13788 29.6201Z" fill="#B19046"/>
<path d="M0.689697 13.0686H7.58606C7.96722 13.0686 8.27576 13.3771 8.27576 13.758V20.6547C8.27576 21.0355 7.96722 21.3444 7.58606 21.3444H0.689697C0.308838 21.3444 0 21.0355 0 20.6547V13.758C0 13.3771 0.308838 13.0686 0.689697 13.0686Z" fill="#67B9CC"/>
<path d="M11.7242 10.3098H21.3794C21.7603 10.3098 22.0691 10.6187 22.0691 10.9995V20.6547C22.0691 21.0355 21.7603 21.3444 21.3794 21.3444H11.7242C11.3434 21.3444 11.0345 21.0355 11.0345 20.6547V10.9995C11.0345 10.6187 11.3434 10.3098 11.7242 10.3098Z" fill="#67B9CC"/>
<path d="M25.5173 6.17188H39.3103C39.6912 6.17188 40 6.48071 40 6.86157V20.6546C40 21.0355 39.6912 21.3443 39.3103 21.3443H25.5173C25.1364 21.3443 24.8276 21.0355 24.8276 20.6546V6.86157C24.8276 6.48071 25.1364 6.17188 25.5173 6.17188V6.17188Z" fill="#67B9CC"/>
<path d="M5.51727 15.1375C5.51727 15.5183 5.20844 15.8271 4.82758 15.8271C4.44672 15.8271 4.13788 15.5183 4.13788 15.1375C4.13788 14.7566 4.44672 14.4478 4.82758 14.4478C5.20844 14.4478 5.51727 14.7566 5.51727 15.1375Z" fill="#F3D55B"/>
<path d="M19.3103 12.3789C19.3103 13.1406 18.6929 13.758 17.9309 13.758C17.1692 13.758 16.5518 13.1406 16.5518 12.3789C16.5518 11.6172 17.1692 10.9995 17.9309 10.9995C18.6929 10.9995 19.3103 11.6172 19.3103 12.3789Z" fill="#F3D55B"/>
<path d="M35.8621 9.9649C35.8621 10.9171 35.09 11.6891 34.1379 11.6891C33.1857 11.6891 32.4139 10.9171 32.4139 9.9649C32.4139 9.01276 33.1857 8.24097 34.1379 8.24097C35.09 8.24097 35.8621 9.01276 35.8621 9.9649Z" fill="#F3D55B"/>
<path d="M8.27576 20.5166V20.6545C8.27484 21.0351 7.96661 21.343 7.58606 21.3442H5.51727L4.57245 19.8269L5.91736 17.6751C5.97961 17.5756 6.08917 17.5149 6.20697 17.5149C6.32477 17.5149 6.43402 17.5756 6.49658 17.6751L8.27576 20.5166Z" fill="#7F8C8D"/>
<path d="M22.0691 20.1718V20.6545C22.0679 21.0351 21.7596 21.343 21.3794 21.3442H18.6069L17.207 19.1372L19.0207 16.2823C19.0851 16.1852 19.194 16.127 19.3103 16.127C19.4269 16.127 19.5355 16.1852 19.5999 16.2823L22.0691 20.1718Z" fill="#7F8C8D"/>
<path d="M40 19.7581V20.6547C39.9988 21.0353 39.6909 21.3432 39.3103 21.3444H35.2344L33.2828 18.2686L35.8829 14.1859C35.9451 14.0861 36.0547 14.0254 36.1725 14.0254C36.2903 14.0254 36.3995 14.0861 36.4621 14.1859L40 19.7581Z" fill="#7F8C8D"/>
<path d="M5.51727 21.3442H0.689697C0.309143 21.343 0.0012207 21.0351 0 20.6545V19.1372L1.77917 16.296C1.84174 16.1962 1.95129 16.1355 2.06909 16.1355C2.18658 16.1355 2.29614 16.1962 2.3587 16.296L4.57245 19.8269L5.51727 21.3442Z" fill="#95A5A5"/>
<path d="M18.6069 21.3442H11.7242C11.3437 21.343 11.0355 21.035 11.0345 20.6545V18.0959L13.5034 14.2131C13.5678 14.1161 13.6768 14.0581 13.793 14.0581C13.9096 14.0581 14.0182 14.1161 14.0826 14.2131L17.207 19.1371L18.6069 21.3442Z" fill="#95A5A5"/>
<path d="M18.6206 21.365L18.6069 21.3442Z" fill="#95A5A5"/>
<path d="M35.2344 21.3444H25.5173C25.1367 21.3431 24.8288 21.0352 24.8276 20.6547V16.9858L28.3655 11.4271C28.429 11.3288 28.5382 11.2693 28.6551 11.2693C28.7723 11.2693 28.8812 11.3288 28.9447 11.4271L33.2828 18.2685L35.2344 21.3444Z" fill="#95A5A5"/>
</svg>
