<svg xmlns="http://www.w3.org/2000/svg" xmlns:xlink="http://www.w3.org/1999/xlink" width="847.938" height="733.19" viewBox="0 0 847.938 733.19"><defs><style>.a{fill:url(#a);}.b,.d,.e{fill:#03a87c;}.b{opacity:0.3;}.c{fill:#92d0ff;}.d{opacity:0.65;}.ar,.f,.g,.s{fill:none;stroke-miterlimit:10;}.f,.g{stroke:#b3d3f4;}.g{stroke-dasharray:3.99 3.99;}.h{fill:#f3faff;}.i{fill:#b3d3f4;}.j{fill:#cfe0f5;}.k{fill:#fff4e1;}.l{fill:#e6f1fc;}.m{fill:#cc6658;}.n{fill:#352e72;}.o{fill:#fc8975;}.p{fill:url(#h);}.q{fill:#75a1e9;}.r{fill:url(#i);}.s{stroke:#4a578e;stroke-width:0.5px;}.t{fill:url(#j);}.u{fill:#afcfc7;}.v{fill:#fff;}.ac,.ap,.w,.x{fill:#052f5f;}.w{font-size:11px;letter-spacing:0.099em;}.w,.x{font-family:OpenSans-Bold, Open Sans;font-weight:700;}.x{font-size:18px;}.aa,.y{fill:#c9d3f4;}.y{opacity:0.55;}.z{fill:url(#k);}.aa,.am,.an{opacity:0.35;}.ab{fill:url(#n);}.ad{fill:url(#s);}.ae,.aj,.ap{opacity:0.75;}.af{fill:#0c748c;}.ag{fill:#081466;}.ah{fill:#a2c0ed;}.ai{fill:#abd1ff;}.aj{fill:url(#t);}.ak{fill:url(#u);}.al{fill:#352e73;}.am{fill:url(#v);}.an{fill:url(#w);}.ao{fill:url(#x);}.aq{fill:#2d4cba;}.ar{stroke:#cfe0f5;}.as{filter:url(#q);}.at{filter:url(#o);}.au{filter:url(#l);}.av{filter:url(#f);}.aw{filter:url(#d);}.ax{filter:url(#b);}</style><linearGradient id="a" x1="0.5" y1="1" x2="0.5" gradientUnits="objectBoundingBox"><stop offset="0.01" stop-color="#fcf5f1"/><stop offset="0.48" stop-color="#fcefed"/><stop offset="1" stop-color="#fce1e3"/></linearGradient><filter id="b" x="22.217" y="571.184" width="825.72" height="162.007" filterUnits="userSpaceOnUse"><feOffset dy="3" input="SourceAlpha"/><feGaussianBlur stdDeviation="3" result="c"/><feFlood flood-opacity="0.161"/><feComposite operator="in" in2="c"/><feComposite in="SourceGraphic"/></filter><filter id="d" x="174.239" y="338.24" width="103.237" height="250.943" filterUnits="userSpaceOnUse"><feOffset dx="-10" dy="3" input="SourceAlpha"/><feGaussianBlur stdDeviation="3" result="e"/><feFlood flood-opacity="0.161"/><feComposite operator="in" in2="e"/><feComposite in="SourceGraphic"/></filter><filter id="f" x="40.7" y="483.309" width="97.645" height="96.875" filterUnits="userSpaceOnUse"><feOffset dy="-6" input="SourceAlpha"/><feGaussianBlur stdDeviation="3" result="g"/><feFlood flood-opacity="0.161"/><feComposite operator="in" in2="g"/><feComposite in="SourceGraphic"/></filter><linearGradient id="h" x1="10.255" y1="0.987" x2="10.255" y2="-0.017" gradientUnits="objectBoundingBox"><stop offset="0" stop-color="#29225e"/><stop offset="1" stop-color="#3f368c"/></linearGradient><linearGradient id="i" x1="11.92" y1="0.982" x2="11.92" y2="-0.019" xlink:href="#h"/><linearGradient id="j" x1="0.755" y1="1.136" x2="0.18" y2="0.178" gradientUnits="objectBoundingBox"><stop offset="0" stop-color="#b3d3f4"/><stop offset="1" stop-color="#d3dced"/></linearGradient><linearGradient id="k" x1="0.755" y1="1.235" x2="0.245" y2="-0.235" gradientUnits="objectBoundingBox"><stop offset="0" stop-color="#cde8ff"/><stop offset="1" stop-color="#eee7e9"/></linearGradient><filter id="l" x="235.308" y="309.183" width="477.4" height="294.575" filterUnits="userSpaceOnUse"><feOffset dy="3" input="SourceAlpha"/><feGaussianBlur stdDeviation="3" result="m"/><feFlood flood-opacity="0.161"/><feComposite operator="in" in2="m"/><feComposite in="SourceGraphic"/></filter><linearGradient id="n" x1="0.75" y1="1.588" x2="0.25" y2="0.412" xlink:href="#k"/><filter id="o" x="235.308" y="390.325" width="477.4" height="213.433" filterUnits="userSpaceOnUse"><feOffset dy="3" input="SourceAlpha"/><feGaussianBlur stdDeviation="3" result="p"/><feFlood flood-opacity="0.161"/><feComposite operator="in" in2="p"/><feComposite in="SourceGraphic"/></filter><filter id="q" x="607.48" y="495.233" width="110.813" height="119.956" filterUnits="userSpaceOnUse"><feOffset dx="-6" dy="1" input="SourceAlpha"/><feGaussianBlur stdDeviation="3" result="r"/><feFlood flood-opacity="0.161"/><feComposite operator="in" in2="r"/><feComposite in="SourceGraphic"/></filter><linearGradient id="s" x1="0.5" y1="0.434" x2="0.5" y2="0.97" gradientUnits="objectBoundingBox"><stop offset="0" stop-color="#03a87c"/><stop offset="1" stop-color="#0c748c"/></linearGradient><linearGradient id="t" x1="0" y1="0.5" x2="1" y2="0.5" xlink:href="#s"/><linearGradient id="u" x1="0.5" y1="0.344" x2="0.5" y2="1.054" xlink:href="#s"/><linearGradient id="v" x1="0.501" y1="1" x2="0.501" gradientUnits="objectBoundingBox"><stop offset="0" stop-color="#29225e"/><stop offset="1" stop-color="#03020a"/></linearGradient><linearGradient id="w" x1="0.499" y1="1.003" x2="0.499" y2="0.003" xlink:href="#h"/><linearGradient id="x" x1="0.5" y1="0" x2="0.5" y2="1" xlink:href="#s"/></defs><g transform="translate(-111.935 -42.393)"><g transform="translate(111.935 42.393)"><g class="ax" transform="matrix(1, 0, 0, 1, 0, 0)"><path class="a" d="M155.325,385.75H930.719c25.215,0-19.953,26.009-34.763,55.269s-13.952,41.4-50.817,63.5c-79.276,47.605-113.2-45.548-239.072-8.891-53.624,15.625-122.007,45.482-175.95,29.625-45.387-13.27-56.465-74.51-90.774-79.453-52.7-7.63-79.007,0-127.084-4.777C171.008,437.038,89.429,385.75,155.325,385.75Z" transform="translate(-99.29 191.43)"/></g><path class="b" d="M497.553,494.432c-2.471-85.344,16.81-188.928,84.05-247.712,10.792-9.447,23.988-21.6,39.3-20.491,7.127.521,10.658,8.674,11.767,14.709,1.916,10.792,0,21.853-2.589,32.544-14.557,58.835-62.55,161.662-74.821,220.951" transform="translate(150.531 82.751)"/><path class="c" d="M596.223,239.783a332.833,332.833,0,0,0-33.418,52.85,390.615,390.615,0,0,0-22.576,54.28A433.8,433.8,0,0,0,526.6,398.756a420.705,420.705,0,0,0-6.506,45.807,271.763,271.763,0,0,0-1.059,35.671c0,1.177.135,2.337.185,3.513a.462.462,0,0,0,.924,0,293.227,293.227,0,0,1,.908-34.158,411.689,411.689,0,0,1,5.732-44.429,438.065,438.065,0,0,1,12.49-50.951A400.1,400.1,0,0,1,560.6,299.762a353.739,353.739,0,0,1,31.435-53.187q2.286-3.228,4.69-6.388c.235-.3-.286-.706-.521-.4Z" transform="translate(165.178 91.957)"/><path class="d" d="M531.78,461.551c8.993-55.238,18.491-100.339,50.111-146.5,13.011-18.979,38.108-42.445,58.062-40.5,21.416,2.068,6.22,34.427-6.489,58.583a340.463,340.463,0,0,0-35.133,103.2C600.012,425.527,607.61,394.7,629.8,381c6.573-4.018,22.542-6.438,22.542,7.01,0,23.433-22.778,51.59-28.476,73.577" transform="translate(173.979 115.633)"/><path class="c" d="M619.031,284.547a164.742,164.742,0,0,0-14.07,21.853c-5.85,10.372-11.128,21.08-16.121,31.939q-8.539,18.491-15.818,37.57c-4.808,12.624-9.161,25.434-12.843,38.428a222.559,222.559,0,0,0-7.346,35c-.135,1.278-.252,2.555-.353,3.816,0,.437.622.42.672,0a235.187,235.187,0,0,1,6.926-34.091c3.48-12.893,7.682-25.585,12.3-38.108s9.851-25.316,15.432-37.7c5.043-11.095,10.321-22.038,16.087-32.763A204.026,204.026,0,0,1,618.039,287.1c.5-.689,1.009-1.362,1.547-2.034.3-.387-.252-.941-.555-.555Z" transform="translate(188.076 122.402)"/><path class="c" d="M608.582,343.049a83.247,83.247,0,0,0-15.953,23.534,180.22,180.22,0,0,0-10.943,30.258q-2.454,8.893-4.152,17.953c-.1.521.689.756.807.219,4.505-20.391,10.086-41.319,21.281-59.188a72.285,72.285,0,0,1,9.5-12.288c.3-.336-.185-.824-.5-.5Z" transform="translate(205.132 162.272)"/><g class="aw" transform="matrix(1, 0, 0, 1, 0, 0)"><path class="e" d="M233.144,480.119c-13.011-107.685-3.564-154.652,8.708-184.439,5.715-13.9,13.919-27.652,25.534-37.469,46.5-39.235,45.084,36.982,42.9,60.18C305.242,371.056,292.1,427.369,290.9,480.119" transform="translate(-33.65 97.06)"/></g><path class="d" d="M251.439,479.209c-1.479-33.872-16.608-66.921-35.856-94.27s-46.009-49.421-63.458-78.3c-9.33-15.465-24.122-39.789-2.253-52.481,24.24-14.07,59.844.672,79.343,16.81,21.2,17.5,35.133,42.277,46.749,66.752,20.559,43.219,24.677,93.682,25,141.54" transform="translate(-93.836 97.975)"/><path class="e" d="M274.143,443.642c.1-34.477-17.466-70.888-45.2-97.817-18.121-17.6-39.806-34.091-64.534-41.336-12.843-3.782-48.749-9.75-52.313,11.582-1.362,8.086,5.934,23.282,23.416,37.116,24.29,19.247,91.413,49.152,99.5,90.455" transform="translate(-111.935 133.541)"/><path class="c" d="M121.9,310.914a173.4,173.4,0,0,1,28.762,10.842,198.005,198.005,0,0,1,29.636,17.5,181.351,181.351,0,0,1,27.636,24.206,153.579,153.579,0,0,1,22.34,30.8,143.291,143.291,0,0,1,13.952,37.116c.387,1.681.723,3.362,1.042,5.043.084.454.773.269.689-.185A131.858,131.858,0,0,0,233.4,397.989a153.093,153.093,0,0,0-21.6-31.636,179.989,179.989,0,0,0-27.266-25.047A196.682,196.682,0,0,0,154.6,322.815a179.858,179.858,0,0,0-29.149-11.582c-1.126-.336-2.253-.656-3.362-.958a.306.306,0,1,0-.168.588Z" transform="translate(-105.286 140.027)"/><path class="c" d="M152.225,260.267a135.033,135.033,0,0,1,27.955,20.34A209.367,209.367,0,0,1,207.6,311.79a264.355,264.355,0,0,1,24.425,41.437,300.229,300.229,0,0,1,18.642,50.682A348.581,348.581,0,0,1,260.952,463c.235,2.606.454,5.211.639,7.8,0,.773,1.227.773,1.194,0a311.321,311.321,0,0,0-8.96-60.516,303.3,303.3,0,0,0-17.953-51.909,270.357,270.357,0,0,0-24.24-42.865,215.36,215.36,0,0,0-27.518-32.494,144.868,144.868,0,0,0-28.19-21.517c-1.126-.639-2.236-1.244-3.362-1.849-.353-.185-.672.353-.319.555Z" transform="translate(-84.59 105.531)"/><path class="c" d="M273.409,253.39a286,286,0,0,0-13.179,39.84,446.59,446.59,0,0,0-8.808,43.84c-2.286,14.995-3.967,30.09-5.177,45.219s-1.967,30.056-2.32,45.1c-.353,14.289-.521,28.577,0,42.9,0,1.681.118,3.362.168,4.942a.521.521,0,1,0,1.042,0c-.1-14.087-.2-28.19,0-42.277.3-14.927.941-29.855,2-44.748,1.093-15.263,2.622-30.51,4.774-45.673,2.084-14.709,4.74-29.367,8.186-43.824a330.157,330.157,0,0,1,12.271-40.478c.588-1.53,1.177-3.059,1.8-4.589.185-.471-.572-.672-.756-.219Z" transform="translate(-22.276 101.146)"/><g class="av" transform="matrix(1, 0, 0, 1, 0, 0)"><path class="e" d="M221.145,417.7c-4.152-18.609-7.817-37.991-18.894-54.01-7.262-10.489-22.038-25.081-35.2-24.862-9.783.185-12.019,9.582-10.876,18.054,2.992,22.206,15.3,29,20.172,53-2.387-9.094-17.062-40.6-29.955-28.577-14.171,13.246,6.959,36.36,6.959,36.36" transform="translate(-91.8 159.48)"/></g><path class="c" d="M147.549,367.942a140.746,140.746,0,0,1,10.473,13.767,79.9,79.9,0,0,1,8.27,16.625.37.37,0,0,0,.706-.2,53.4,53.4,0,0,0-8.17-16.911,123.187,123.187,0,0,0-10.842-13.7c-.269-.3-.672.134-.437.42Z" transform="translate(-87.73 178.95)"/><path class="c" d="M159.674,347.257c7.632,7.783,13.229,17.5,18.054,27.182a271.214,271.214,0,0,1,11.851,28.174c1.177,3.261,2.32,6.556,3.513,9.817.151.437.841.252.706-.2-2.185-7.3-4.858-14.457-7.733-21.5a184.627,184.627,0,0,0-14.944-29.838,80.689,80.689,0,0,0-11.011-14,.3.3,0,1,0-.437.42Z" transform="translate(-79.482 164.905)"/><line class="f" x2="3.362" transform="translate(507.2 401.62)"/><path class="g" d="M549.724,405.47h232.2a67.858,67.858,0,1,0,0-135.715l-517.26.008a35.99,35.99,0,0,1-35.99-35.99h0a36.007,36.007,0,0,1,35.99-35.99H699.3a31.939,31.939,0,0,0,0-63.744H301.508a17.533,17.533,0,1,1,0-35.032H410.436" transform="translate(-32.438 -3.85)"/><line class="f" x2="3.362" transform="translate(381.411 95.123)"/><path class="h" d="M374.5,65.465a36.982,36.982,0,0,0-31.939,62.8l-5.043,10.086,11.2-5.211a36.982,36.982,0,1,0,25.719-67.711Z" transform="translate(37.641 -27.008)"/><path class="i" d="M345.605,111.91l-3.816-4.572a4.169,4.169,0,0,1,.521-5.85l4.4-3.665a4.152,4.152,0,0,1,5.85.538s2,3.093,4.4,2.5c2.706-.622,8.607-4.925,11.767-8.254,2.236-2.353-1.513-6.489-1.513-6.489a4.135,4.135,0,0,1,.521-5.85l4.4-3.665a4.169,4.169,0,0,1,5.85.521l3.816,4.572C390.4,92.007,353.1,120.887,345.605,111.91Z" transform="translate(43.941 -19.745)"/><path class="h" d="M461.037,118.654c5.48-5.245,7.749-10.641,15.28-12.322a14.053,14.053,0,0,0,4.505-1.378c3.665-2.269,2.908-7.464,3.732-11.582,1.681-8.119,12.221-13.246,19.987-9.683,3.261,1.5,6.2,4.253,9.8,4.018,7.195-.5,6.337-9.363,11.246-14.423,4.64-4.791,14.1-5.413,20.172-2.37a31.032,31.032,0,0,1,10.59,8.59c2.925,3.8,2.791,9.649,4.959,13.835s6.976,5.783,9.128,9.75a12.069,12.069,0,0,1,.908,10.758c-3.059,7.363-12.07,12.692-20.172,12.692H440.68S454.952,124.437,461.037,118.654Z" transform="translate(111.94 -24.237)"/><path class="h" d="M333.546,84.4c-4.623-4.438-6.539-8.993-12.91-10.422a11.5,11.5,0,0,1-3.8-1.16c-3.11-1.916-2.471-6.321-3.177-9.8-1.362-6.858-10.321-11.179-16.81-8.17-2.757,1.261-5.245,3.6-8.287,3.362-6.085-.4-5.346-7.9-9.5-12.187S267.1,41.48,262.053,44.036a26,26,0,0,0-8.943,7.279c-2.471,3.194-2.37,8.153-4.186,11.683s-5.9,4.892-7.716,8.237a10.254,10.254,0,0,0-.79,9.094c2.606,6.22,10.221,10.725,17.129,10.725h93.279S338.689,89.339,333.546,84.4Z" transform="translate(-24.922 -42.393)"/><path class="j" d="M577.776,161.9,512.94,127.2,530.019,76.52l78.906,40.865Z" transform="translate(161.149 -19.152)"/><path class="j" d="M602.006,122.247,523.1,81.382l56.246-12Z" transform="translate(168.068 -24.014)"/><rect class="k" width="71.14" height="60.096" transform="matrix(0.888, 0.46, -0.46, 0.888, 700.91, 57.324)"/><path class="l" d="M533.86,76.52l-26.56,51.3,51.792-3.412Z" transform="translate(157.309 -19.152)"/><path class="l" d="M591.784,100.83l-26.56,51.3L538.11,107.857Z" transform="translate(178.29 -2.597)"/><path class="l" d="M586.206,155.607,507.3,114.742,567.312,95.73Z" transform="translate(157.309 -6.07)"/><path class="l" d="M586.206,152.767,507.3,111.9l56.246-12Z" transform="translate(157.309 -3.23)"/><path class="j" d="M269.776,156.237l-52.834,13.229L201.09,133.174l63.626-16.844Z" transform="translate(-51.22 7.959)"/><path class="j" d="M264.716,123.515,201.09,140.358l24.879-34.578Z" transform="translate(-51.22 0.774)"/><rect class="k" width="52.683" height="44.496" transform="translate(155.184 136.261) rotate(-14.84)"/><path class="l" d="M201.09,126.35l10.96,41.369,26.711-27.652Z" transform="translate(-51.22 14.782)"/><path class="l" d="M249.455,116.33l10.96,41.353L223.5,146.891Z" transform="translate(-35.959 7.959)"/><path class="l" d="M271.236,150.423l-63.626,16.86,23.45-40.294Z" transform="translate(-46.78 15.218)"/><path class="l" d="M271.236,148.108l-63.626,16.86,24.879-34.578Z" transform="translate(-46.78 17.534)"/><path class="m" d="M367.639,91.548A10.975,10.975,0,0,1,369,94.423a6.1,6.1,0,0,1-.353,3.362c0,.118.151.219.219,0a4.825,4.825,0,0,0,.521-3.362,8.724,8.724,0,0,0-1.563-3.043c-.084-.118-.269,0-.185.1Z" transform="translate(62.185 -9.066)"/><path class="n" d="M328.211,316.63s11.464,4.186,11.532,7.565c0,1.95-16.608,1.9-17.651.605-1.681-2.051,1.227-7.749,1.227-7.749Z" transform="translate(30.826 144.363)"/><path class="o" d="M327.454,311.933l.269,9.75a2.471,2.471,0,0,1-2.051,1.815c-1.681.219-2.858-1.681-2.858-1.681l-.5-12.187" transform="translate(31.33 139.596)"/><path class="p" d="M347.122,182.476s6.236,37.856,3.11,110.492c-2.135,49.623-8.842,109.584-11.3,109.652a32.1,32.1,0,0,1-4.656-.235S318.663,330.5,317.587,290.01c-1.681-62.348-18.071-76.637-10.943-109.03" transform="translate(19.445 51.985)"/><path class="q" d="M329.212,310.48l-.471,4.286-6.842.2-.319-4.286Z" transform="translate(30.833 140.175)"/><path class="n" d="M307.2,317.21s11.448,4.186,11.532,7.564c0,1.95-16.625,1.9-17.667.605-1.681-2.051,1.227-7.749,1.227-7.749Z" transform="translate(16.504 144.758)"/><path class="o" d="M306.434,312.52l.252,9.75a2.454,2.454,0,0,1-2.051,1.815c-1.681.219-2.858-1.681-2.858-1.681l-.487-12.2" transform="translate(17.016 139.984)"/><path class="r" d="M335.72,182.806s-2.942,48.161-6.64,103.734c-1.462,21.954-14.07,113.77-15.852,116.813l-6.236.168s-9.481-79.461-10.54-119.939c-1.681-62.348-8.4-69.879-1.227-102.272" transform="translate(10.675 52.21)"/><path class="q" d="M308.282,311.05l-.454,4.3-6.859.185-.319-4.27Z" transform="translate(16.58 140.563)"/><path class="s" d="M319.916,196.69s-2.421,61.525-6.926,97.5" transform="translate(24.984 62.684)"/><path class="t" d="M486.979,110.24,257.27,311.372V587.946h459.4V311.372Z" transform="translate(-12.962 3.811)"/><path class="u" d="M16,0H396.954a16,16,0,0,1,16,16V378.41H0V16A16,16,0,0,1,16,0Z" transform="translate(267.54 184.805)"/><rect class="v" width="365.668" height="32.309" transform="translate(291.175 233.974)"/><rect class="v" width="365.668" height="32.309" transform="translate(291.175 281.429)"/><rect class="v" width="365.668" height="192.138" transform="translate(291.175 328.883)"/><text class="w" transform="translate(303.009 252.311)"><tspan x="0" y="0">NAME</tspan></text><text class="w" transform="translate(303.009 300.875)"><tspan x="0" y="0">EMAIL</tspan></text><text class="w" transform="translate(303.009 348.28)"><tspan x="0" y="0">MESAGE</tspan></text><text class="x" transform="translate(412.644 217.572)"><tspan x="0" y="0">CONTACT US</tspan></text><path class="y" d="M486.979,405.487,257.27,229.89V477.921h459.4V229.89Z" transform="translate(-12.962 85.293)"/><g class="au" transform="matrix(1, 0, 0, 1, 0, 0)"><path class="z" d="M486.979,434.064,257.27,229.89V506.465h459.4V229.89Z" transform="translate(-12.96 85.29)"/></g><path class="aa" d="M486.979,265.6,257.27,482.146h459.4Z" transform="translate(-12.962 109.612)"/><g class="at" transform="matrix(1, 0, 0, 1, 0, 0)"><path class="ab" d="M486.979,278.16,257.27,473.593h459.4Z" transform="translate(-12.96 118.16)"/></g><g class="as" transform="matrix(1, 0, 0, 1, 0, 0)"><path class="e" d="M484.023,443.714c-4.656-24.24.2-49.119,9.884-69.829,6.337-13.549,20.912-32.427,37.184-32.124,12.1.219,17.18,12.389,17.886,23.332,1.832,28.711-11.666,37.469-11.582,68.518.672-11.767,12.036-49.943,29.8-36.982,17.4,12.759.454,47.068.454,47.068" transform="translate(140.24 161.48)"/></g><path class="c" d="M535.751,378.939a125.629,125.629,0,0,0-9.245,17.785,62.839,62.839,0,0,0-5.346,21.853c0,.488.673.454.74,0a88.306,88.306,0,0,1,5.514-21.55,137.38,137.38,0,0,1,8.859-17.852.3.3,0,0,0-.521-.3Z" transform="translate(166.747 186.663)"/><path class="c" d="M519.917,352.205c-7.4,10.3-11.5,22.862-14.709,35.015a299.967,299.967,0,0,0-6.976,36.545c-.571,4.287-1.059,8.607-1.412,12.927,0,.471.672.454.74,0,1.227-9.178,2.3-18.357,3.9-27.484a216.743,216.743,0,0,1,9.8-38.377,81.648,81.648,0,0,1,9.178-18.323C520.657,352.188,520.135,351.886,519.917,352.205Z" transform="translate(150.172 168.497)"/><path class="o" d="M303.456,169.89a14.914,14.914,0,0,0,3.917,2.118,36.07,36.07,0,0,1,6.186-.4c1.278.118,4.589.857,4.774,1.378s-2.992.437-2.908.672,5.934,2.4,5.682,3.362c-.134.454-5.816-1.681-5.816-1.681s6.186,2.152,5.833,2.841-6.22-1.681-6.22-1.681,5.6,2.034,5.3,2.622-5.766-.874-5.766-.874,4.757,1.025,4.488,1.6c-.134.3-5.346-.37-9.8-2.051a33.62,33.62,0,0,1-7.531-4.118" transform="translate(17.22 44.433)"/><path class="o" d="M486.1,204.625c-4.488-1.849-10.893-7.329-10.086-10.439.319-1.328,3.48,2.286,4.371,1.4.588-.588.1-3.261-1.513-4.556s-5.043-3.681-4.152-4.505,9.044.992,10.893,3.782a31.368,31.368,0,0,1,3.244,9.918l3.362,4.4" transform="translate(135.022 55.623)"/><path class="ac" d="M538.393,405.25s-14.02,4.236-14,7.447c0,1.832,20.592,1.345,21.853.1,1.984-1.984-1.681-7.279-1.681-7.279Z" transform="translate(168.947 204.713)"/><path class="o" d="M532.72,400.87v9.212a2.824,2.824,0,0,0,2.589,1.681,4.4,4.4,0,0,0,3.48-1.681l.219-11.532" transform="translate(174.62 200.15)"/><path class="ac" d="M523.964,279.191s-6.472,35.889-.235,104.356c4.253,46.765,14.473,103.18,17.516,103.18a52.429,52.429,0,0,0,5.732-.336s16.978-68.249,16.978-106.491c0-58.835,19.853-72.787,9.985-103.18" transform="translate(166.65 117.184)"/><path class="q" d="M531.79,399.46l.706,4.034h8.455l.269-4.034Z" transform="translate(173.986 200.77)"/><path class="ac" d="M564.393,405.25s-14.02,4.236-14,7.447c0,1.832,20.592,1.345,21.853.1,1.984-1.984-1.681-7.279-1.681-7.279Z" transform="translate(186.653 204.713)"/><path class="o" d="M558.72,400.87v9.212a2.791,2.791,0,0,0,2.589,1.681,4.4,4.4,0,0,0,3.48-1.681l.219-11.532" transform="translate(192.326 200.15)"/><path class="ac" d="M537.64,279.191s5.194,45.387,11.565,97.716c2.521,20.693,21.08,107,23.383,109.82h7.682s9.145-75.225,9.145-113.467c0-58.835,8.035-66.147-1.816-96.54" transform="translate(177.97 117.184)"/><path class="q" d="M557.66,399.46l.706,4.034h8.472l.252-4.034Z" transform="translate(191.604 200.77)"/><path class="s" d="M539.22,291.84s5.043,57.995,11.767,91.883" transform="translate(179.046 127.481)"/><path class="ad" d="M628.451,327.55c0-3.749,2.925-68.433-8.321-83.058-3.177-6.808-14.927-14.524-24.29-17.869-8.254-2.959-13.448-.656-17.213-.118-15.785-4.522-51.892-1.5-61.911-6.64-5.514-2.824-31.3-25.215-31.3-25.215L480.59,198.4S496,230.59,513.319,241.852c12.187,7.9,30.258,12.3,39.924,14.221-.151,1.681-.269,3.715-.37,5.884-.521,11.548-1.849,31.838-.5,65.559.135,3.211-3.362,7.312-3.362,9.464s4.169,8.909,38.9,8.909c29.451,0,43.454-4.32,43.454-9.229S628.451,331.3,628.451,327.55Z" transform="translate(139.119 61.295)"/><g class="ae" transform="translate(692.24 304.156)"><path class="af" d="M524.65,223.33a53.621,53.621,0,0,1-.79,13.246,46.318,46.318,0,0,1,0-6.724A48.628,48.628,0,0,1,524.65,223.33Z" transform="translate(-523.737 -223.33)"/></g><path class="o" d="M538.768,190c-1.311,5.194-4.522,19.466-1.58,23.921s9.3,5.7,14.171,3.648a18.491,18.491,0,0,0,9.817-11.767,44.142,44.142,0,0,0,1.177-15.734" transform="translate(176.842 58.128)"/><path class="o" d="M541.831,203.129l-2.051,17.3s.756,4.841,3.362,6.724c6.505-.134,9.649-6.337,9.649-6.337l-1.95-22.273" transform="translate(179.427 63.944)"/><path class="ac" d="M557.757,200.43c-3.362-1.21-7.951-.773-12.154-1.5a36.107,36.107,0,0,1-8.792-1.681c-5.043-2.185-4.556-9.75-.471-12.624a5.261,5.261,0,0,1,3.917-1.227c1.462.336,2,1.883,3.362,2.471a4.337,4.337,0,0,0,2.219.3,2.723,2.723,0,0,0,1.53-.588c.723-.605,1.009-1.681,1.681-2.253a5.2,5.2,0,0,1,2.437-1.244,7.346,7.346,0,0,1,5.816.891,7.448,7.448,0,0,0,1.681,1.16,17.567,17.567,0,0,1,3.362.841,11.448,11.448,0,0,1,4.841,8.59c0,.471.84.958,1.126,1.294,2.79,3.244,2.975,7.8,2.236,11.767a16.81,16.81,0,0,1-5.43,10.506,14.9,14.9,0,0,1-4.27,1.832c-5.8,2.051-2.858-13.935-3.11-18.491" transform="translate(174.915 52.573)"/><path class="o" d="M548.488,198.82a1.933,1.933,0,0,1,2.875-1.345,2.37,2.37,0,0,1,1.16,1.815,4.286,4.286,0,0,1-2.942,4.4c-.756.135-1.563-.807-1.681-1.546" transform="translate(184.957 63.041)"/><path class="ag" d="M546.04,206.332a11.307,11.307,0,0,0,1.681-.269,7.346,7.346,0,0,0,4.27-2.723,3.126,3.126,0,0,0,.689-1.681.261.261,0,0,0-.521-.034,2.689,2.689,0,0,1-.588,1.479,6.724,6.724,0,0,1-3.967,2.521,17.146,17.146,0,0,1-4.774.269.252.252,0,1,0-.017.5,20.678,20.678,0,0,0,3.227-.067Z" transform="translate(181.32 65.884)"/><path class="ag" d="M542.241,203.877a1.866,1.866,0,0,1,1.446-.084c1.681.521-.135,2.606-1.681,1.53a.926.926,0,0,1-.3-.319.857.857,0,0,1,.538-1.126Z" transform="translate(180.698 67.448)"/><path class="q" d="M558.886,200.983a21.164,21.164,0,0,0-3.984-10.49c-2.891-3.614-6.724-6.589-10.456-6.589a12.3,12.3,0,0,0-4.656.706,20.172,20.172,0,0,1,10.086,5.85,17.651,17.651,0,0,1,4.875,11.767" transform="translate(179.434 53.969)"/><path class="q" d="M545.58,200.34a6.858,6.858,0,1,0,7.564-6.724,7.111,7.111,0,0,0-7.564,6.724Z" transform="translate(183.377 60.58)"/><path class="ah" d="M547.49,199.855a4.505,4.505,0,1,0,5.043-4.572,4.791,4.791,0,0,0-5.043,4.572Z" transform="translate(184.678 61.721)"/><path class="ah" d="M572.637,289.223H503.3l-6.724-41.891a2.942,2.942,0,0,1,2.908-3.362H561.19A4.824,4.824,0,0,1,565.93,248Z" transform="translate(149.982 94.882)"/><path class="af" d="M571.431,289.223H502.106l-6.724-41.891a2.942,2.942,0,0,1,2.891-3.362h61.793a4.791,4.791,0,0,1,4.74,4.034Z" transform="translate(149.172 94.882)"/><path class="ai" d="M523.922,259.042c-.756-3.53-3.362-6.035-6-5.581s-4.018,3.681-3.244,7.212,3.362,6.035,6,5.581S524.7,262.573,523.922,259.042Z" transform="translate(162.186 101.309)"/><path class="aj" d="M587.994,229.585c-3.177-6.808-11.565-9.683-20.928-13.045l-2.572,31.636c1.16,14.423,6.371,35.3,6.371,35.3l-28.98,21.937v.084a5.394,5.394,0,0,1-1.16.622c-.4,0-3.211-1.6-4.707-1.345s-3.194.353-3.194.908,2.269.588,2.269,1.093-1.53,1.547-2.236,1.547a28.581,28.581,0,0,0-5.043,0c-.252.3.874,2.168,2.017,3.177a7.43,7.43,0,0,0,3.665,1.261,24.661,24.661,0,0,0,7.85-1.463c.471-.336,1.681-1.009,2.841-1.681l.975,1.8s39.52-3.143,51.405-8.556C596.92,283.393,596.82,241.066,587.994,229.585Z" transform="translate(171.255 76.202)"/><path class="o" d="M544.342,268.47a30.377,30.377,0,0,1-3.6,1.916c-.4,0-3.211-1.362-4.707-1.143s-3.194.319-3.194.773,2.269.5,2.269.941-1.53,1.311-2.236,1.311a31.942,31.942,0,0,0-5.043,0c-.252.252.874,1.849,2.017,2.706a8.237,8.237,0,0,0,3.665,1.076,28.208,28.208,0,0,0,7.85-1.244c1.042-.639,5.564-2.639,5.564-2.639" transform="translate(171.268 111.566)"/><path class="ak" d="M557.983,213.67s20.29,1.278,29.939,20.038,6.623,58.7.74,64.584-50.8,13.162-50.8,13.162l-1.681-4.118,31.636-19.752s-9.851-33-9.851-46.379" transform="translate(176.976 74.247)"/><path class="af" d="M541.8,218.107c1.463,1.462,2.084,3.547,3.48,6.522,6.724-2.219,8.859-9.666,8.859-9.666l-2.69-3.194S546.154,217.2,541.8,218.107Z" transform="translate(180.803 72.953)"/><path class="af" d="M544.315,218.25a15.853,15.853,0,0,0-3.362,5.514c-1.681-1.681-2.975-7.9-2.807-8.657.857-1.294,2.807-3.547,2.807-3.547a12.675,12.675,0,0,0,3.362,6.69Z" transform="translate(178.305 72.81)"/><path class="al" d="M196.32,404.287s-14.02,4.236-14.02,7.447c0,1.832,20.609,1.345,21.853.1,2-1.984-1.53-7.985-1.53-7.985Z" transform="translate(-64.016 203.76)"/><path class="o" d="M190.64,399.73v9.212a2.791,2.791,0,0,0,2.589,1.681,4.387,4.387,0,0,0,3.463-1.681l.235-11.532" transform="translate(-58.337 199.374)"/><path class="ac" d="M201.711,253.9c-9.43,12.187-20.491,46.665-20.491,112.106,0,46.261,14.995,143.12,14.995,143.12l8.573.723c27.4-173.143,18.155-171.361,25-202.14,4.287-19.281-4.421-67.912-4.421-67.912" transform="translate(-64.752 92.042)"/><path class="am" d="M210.067,328.894s-5.9-32.847-5.9-39.554a121.6,121.6,0,0,0,0,43.017c1.866,8.96,3.816,17.718,3.816,17.718Z" transform="translate(-50.431 125.778)"/><path class="q" d="M189.92,398.6v3.648s8.96,1.513,8.96.958.4-4.219.4-4.219Z" transform="translate(-58.827 200.184)"/><path class="al" d="M238.538,404.287s14.02,4.236,14.02,7.447c0,1.832-20.609,1.345-21.853.1-1.984-1.984,1.547-7.985,1.547-7.985Z" transform="translate(-31.464 203.76)"/><path class="o" d="M236.737,399.73l1.563,9.212a2.791,2.791,0,0,1-2.589,1.681,4.4,4.4,0,0,1-3.48-1.681L230.45,397.41" transform="translate(-31.226 199.374)"/><path class="ac" d="M233.239,248.4c9.279,15.616,25.753,47.824,25.753,113.266,0,46.261-1.227,147.407-1.227,147.407l-7.346.756c-23.685-66.114-43.387-150.332-48.009-199.4-1.866-19.668,1.681-70.6,1.681-70.6" transform="translate(-50.691 92.062)"/><path class="an" d="M242.434,248.928a263.654,263.654,0,0,0-30.46-7.228v1.21l-16.154,9.632a49.858,49.858,0,0,0-5.85,10.3,73.143,73.143,0,0,0,20.71,4.64c13.364,1.193,30.056-1.412,38.663-5.413C246.838,256.879,244.5,252.559,242.434,248.928Z" transform="translate(-58.793 93.336)"/><path class="q" d="M239.834,398.19v3.648s-9.414,1.513-9.414.958-.42-4.219-.42-4.219Z" transform="translate(-31.533 199.905)"/><path class="o" d="M264.31,228.793l3.043-1.681a19.99,19.99,0,0,1,1.681-4.354c.555-1.025,2.353-3.547,2.891-3.547s-.622,2.606-.387,2.606,4.2-4.2,4.925-3.732c.37.235-3.513,4.3-3.513,4.3s4.085-4.488,4.572-3.984-3.564,4.69-3.564,4.69,3.765-4.034,4.186-3.614-3.362,4.3-3.362,4.3,3.362-3.362,3.564-3.043-1.681,3.127-5.043,6.455c-.572.572-2.807,2.3-2.959,2.454l-3.5,3.648" transform="translate(-8.168 77.229)"/><path class="m" d="M269.279,220.717a10.083,10.083,0,0,1-.151,3.093,5.581,5.581,0,0,1-1.681,2.5.126.126,0,0,0,.151.2,4.387,4.387,0,0,0,1.916-2.471,8.22,8.22,0,0,0,0-3.362c0-.134-.235-.151-.219,0Z" transform="translate(-6.059 78.95)"/><path class="o" d="M150.278,196.047l-2.168-2.723a19.769,19.769,0,0,0,.168-4.707c-.1-1.143-.74-4.169-1.227-4.387s-.471,2.639-.689,2.538-2.185-5.53-3.026-5.4c-.42.084,1.5,5.362,1.5,5.362s-1.933-5.749-2.606-5.48,1.412,5.715,1.412,5.715-1.849-5.194-2.4-5.043,1.345,5.278,1.345,5.278-1.681-4.505-2.051-4.219.353,3.564,2.068,7.934c.3.773,1.681,3.244,1.681,3.446s1.681,4.74,1.681,4.74" transform="translate(-92.527 52.166)"/><path class="m" d="M144.355,184.872a8.22,8.22,0,0,0-1.294,3.026,4.572,4.572,0,0,0,.773,3.076c0,.1.286,0,.219-.1a5.8,5.8,0,0,1-.605-3.009,9.581,9.581,0,0,1,1.093-2.891.105.105,0,0,0-.185-.1Z" transform="translate(-90.756 54.599)"/><path class="ao" d="M349.3,247.511s-30.729,11.313-37.688,11.313c-5.766,0-15.566-15.566-29.149-26.156a77.324,77.324,0,0,0-18.037-10.2l-25.635-.538a206.129,206.129,0,0,0-23.282,1.866c-12.759,1.681-24.711,1.177-30.258-1.328-10.758-4.808-37.7-33.754-37.7-33.754a5.6,5.6,0,0,0-4.875,1.782c0,1.429,13.851,41,32.141,52.851,13.448,8.724,33.032,10.086,45.253,10.086v8.086c0,4.018-4.791,23.82.891,29.485,5.211,5.211,25.1,5.867,32.864,5.867,11.515,0,23.3-1.832,26.257-5.867,1.479-2.017,1.244-11.027.79-19.3,9.212,5.8,17.55,11.582,28.174,11.582,19.92,0,43.336-31.149,43.336-31.149Z" transform="translate(-91.004 57.216)"/><path class="ap" d="M228.626,247.367l-.269-5.749-8.607-8.708Z" transform="translate(-38.513 87.35)"/><path class="ap" d="M190.648,232.226c0-1.025,1.681-10.893,1.681-12.456-2.572,5.564-6.489,12.406-6.489,12.406Z" transform="translate(-61.606 78.401)"/><path class="ac" d="M223.29,181.35c7.228,4.505,6,13.717,8.926,19.5,2.118,4.152,5.43,7.7,5.732,12.641.353,5.4-6.724,7.918-10.439,7.346-7.363-1.143-13.7,2.606-21.113,1.681-5.043-.622-3.16-3.16-6.455-7.043a14.91,14.91,0,0,1-3.228-8.4,35.72,35.72,0,0,1,.656-9.161" transform="translate(-54.241 52.237)"/><path class="o" d="M207.734,202.452l-1.446,13.263-6.438.992s4.488,8.1,11.633,8.1,14-7.564,14-7.564l-6.892-2.2L215.954,196.4" transform="translate(-52.065 62.486)"/><path class="o" d="M198.44,191.016a43.1,43.1,0,0,0,.151,13.314,14.457,14.457,0,0,0,7.649,10.355,16.81,16.81,0,0,0,5.9,1.143,14.692,14.692,0,0,0,9.7-2.3,12.271,12.271,0,0,0,4.118-10.624,36.31,36.31,0,0,0-3.362-11.347l-4.236-10.2" transform="translate(-53.328 52.237)"/><path class="ac" d="M189.8,210.583c-1.412,1.681-3.11,3.463-3.362,5.682a5.413,5.413,0,0,0,3.194,5.312,10.3,10.3,0,0,0,5.346.4,23.819,23.819,0,0,1,6.186.252c1.681.336,3.362.975,5.043,1.446a17.448,17.448,0,0,0,7.716.672,1.429,1.429,0,0,0,1.143-.622,1.607,1.607,0,0,0-.219-1.412,21.365,21.365,0,0,1-1.311-10.893,28.93,28.93,0,0,1,.908-5.631,31.73,31.73,0,0,1,1.681-4.455c1.261-2.774,2.841-5.446,4.034-8.237s1.9-7.077,5.783-6.505c2.5.353,3.581,4.4,5.245,6.858,2.471-2.824,5.262-4.539,0-11.229-2.639-3.362-7.144-3.177-11.128-2.454-2.236-.151-2.084-1.025-4.32-1.177-7.329-.487-15.129,4.488-18.407,11.2C193.848,197.286,194.689,204.514,189.8,210.583Z" transform="translate(-61.209 50.338)"/><path class="ag" d="M206.071,201a11.081,11.081,0,0,1-1.681-.269,7.3,7.3,0,0,1-4.287-2.723,3.228,3.228,0,0,1-.672-1.681.235.235,0,0,1,.252-.269.252.252,0,0,1,.252.252,2.774,2.774,0,0,0,.588,1.462,6.842,6.842,0,0,0,3.984,2.522,15.867,15.867,0,0,0,4.757.269.261.261,0,1,1,.034.521A23.3,23.3,0,0,1,206.071,201Z" transform="translate(-52.352 62.255)"/><path class="ag" d="M206.864,198.539a1.916,1.916,0,0,0-1.462,0c-1.681.521.151,2.606,1.681,1.53a.925.925,0,0,0,.3-.319.891.891,0,0,0-.521-1.21Z" transform="translate(-48.74 63.844)"/><path class="ag" d="M196.87,195.664a21.3,21.3,0,0,1,3.967-10.489c2.891-3.614,6.724-6.589,10.473-6.589a11.9,11.9,0,0,1,4.64.723,19.92,19.92,0,0,0-10.086,5.85,17.5,17.5,0,0,0-4.892,11.767" transform="translate(-54.094 50.346)"/><path class="ag" d="M208,195.02a6.858,6.858,0,1,1-7.564-6.724A7.127,7.127,0,0,1,208,195.02Z" transform="translate(-55.858 56.958)"/><path class="aq" d="M204.17,194.525a4.505,4.505,0,1,1-5.043-4.572,4.791,4.791,0,0,1,5.043,4.572Z" transform="translate(-55.258 58.091)"/><path class="ar" d="M457.289,87.556l-10.775,4.505a1.681,1.681,0,0,0-.454,2.925l7.716,6.724a1.681,1.681,0,0,0,2.807-.857l3.059-11.145a1.681,1.681,0,0,0-2.353-2.152Z" transform="translate(115.15 -11.781)"/><path class="ar" d="M177.213,172.028l3.143,11.229a1.681,1.681,0,0,0,2.858.807l7.531-6.842a1.681,1.681,0,0,0-.5-2.908l-10.691-4.371a1.681,1.681,0,0,0-2.337,2.084Z" transform="translate(-67.552 44.346)"/><path class="ar" d="M586.307,257.2l8.27-8.237a1.681,1.681,0,0,0-.672-2.891l-9.649-3.228a1.681,1.681,0,0,0-2.286,1.849l1.378,11.481a1.681,1.681,0,0,0,2.959,1.025Z" transform="translate(208.142 94.028)"/><path class="ar" d="M561.53,176.341l3.026,11.28a1.681,1.681,0,0,0,2.841.841l7.615-6.724a1.681,1.681,0,0,0-.487-2.908l-10.641-4.488a1.681,1.681,0,0,0-2.353,2Z" transform="translate(194.189 47.345)"/><rect class="j" width="6.674" height="6.674" transform="translate(714.844 204.661) rotate(-37.39)"/><rect class="j" width="6.674" height="6.674" transform="translate(665.406 155.122) rotate(-2.55)"/><rect class="j" width="6.674" height="6.674" transform="translate(237.452 243.655) rotate(-21.29)"/><rect class="j" width="6.674" height="6.674" transform="matrix(0.934, 0.358, -0.358, 0.934, 303.729, 78.702)"/><rect class="j" width="6.674" height="6.674" transform="translate(41.024 411.917) rotate(-2.55)"/></g></g></svg>